<?xml version="1.0" encoding="utf-8"?>
<!-- Generator: Adobe Illustrator 25.4.1, SVG Export Plug-In . SVG Version: 6.00 Build 0)  -->
<svg version="1.1" id="Layer_1" xmlns="http://www.w3.org/2000/svg" xmlns:xlink="http://www.w3.org/1999/xlink" x="0px" y="0px"
	 viewBox="0 0 2626 1728" style="enable-background:new 0 0 2626 1728;" xml:space="preserve">
<style type="text/css">
	.st0{fill:#FFFFFF;}
</style>
<g>
	<path class="st0" d="M1286.63,77.01c68.69-19.1-52.04-56.68,1288.01,510.23c6.16,2.61,13.36,4.87,16.86,11.14
		c3.79,12.33,0.83,30.84-14.21,33.84c-149.57,35.73-299.23,71.08-448.82,106.67c106.68,85.97,189.63,83.01,201.61,153.74
		c13.55,75.21-59.53,148.3-125.64,187.73c2.35,174.63-177.72,267.95-70.07,490.66c19.32,32.69-22.15,51.88-35.77,31.34
		c-38.61-63.42-47.35-121.76-50.68-129.33c-6.84,59.28-9.41,78.33-3.73,146.1c-0.57,21.69-36.12,27.63-44.5,8.05
		c-3.95-19.41-5.13-39.28-6.93-58.97c-6.51,74.51,7.37,71.02-35.83,86.19c-52.09,18.37-139.12-14.3-130.97-48.27
		c92.81-309.39,209.36-372.84,272.67-504.79c52.93-106.38,69.76-67.84,126.92-127.68c34.34-35.82,33.52-69.89,22.85-84.65
		c-4.88-4.03-130.3-53.29-198.7-131.15c-4.61,0.85-9.15,1.86-13.66,2.87c30.05,74.28,52,151.87,64.78,231
		c3.97,19.15-13.71,35.09-34.19,26.08c-451.43-196.69-582.3,17.68-927.79-64.87c-117.26-27.86-303.39-130.26-636.61-20.31
		c-21.54,5.91-31.89-14.87-28.55-30.11c14.83-93.34,48.2-183.7,97.59-264.29C395.5,562.54,219.72,486.86,44.06,410.98
		c-18.44-7.98-12.19-39.43,6.82-42.48C462.79,271.32,874.74,174.28,1286.63,77.01 M963.54,176.86
		C661,248.43,358.31,319.33,55.83,391.2c175.84,75.9,351.75,151.65,527.64,227.45c69.08-105.75,204.1-227.19,272.21-233.74
		c18.88-2.59,38.01-2.04,57-3.62c429.51-30.55,930.56,72.37,971.31,117.64c10.47,11.56,91.32,120.19,143.03,240.3
		c181.22-42.74,362.3-86.08,543.5-128.89c-410.88-173.8-821.58-348-1232.57-521.48C1213.05,117.67,1088.37,147.67,963.54,176.86
		 M839.91,410.74C814.99,419.3,547.43,572,495.38,910.57c347.16-116.39,558.48,2.44,673.83,26.03
		c323.54,68,466.66-136.46,909.55,61.76c-38.06-244.18-169.78-439.78-220.74-490.62C1529.16,409.79,1181.25,376.59,839.91,410.74
		 M2075,751.57c132.4,129.64,253.73,97.59,196.83,198.02c-28.95,48.52-54.72,67.35-81.56,84.85c5.24,5.79,8.33,13.11,10.53,20.55
		c42.3-25.4,80.77-61.21,99.41-107.77c33.1-87.19-40.11-101.03-95.91-130.05c-37.26-19.04-72.04-43.07-102.53-71.74
		C2092.83,747.38,2084,749.81,2075,751.57 M2098.62,1156.11c-6.53,14.14-165.08,168.59-250.34,455.14
		c31.35,27.78,76.14,35.96,119.31,14.78c-2.37-113.01,31.08-226,92.22-320.85c-41.62,98.03-56.21,207.8-38.56,312.96
		c-10.99-95.86,4.39-194.9,45.84-282.17c-14.18,92.46,5.82,175.68,49.7,253.17c-22.22-70.37-100.93-135.93,52.99-416.34
		c3.19-16.98,15.81-100.08,1.82-126.15C2148.44,1039.99,2109.65,1131.07,2098.62,1156.11z"/>
	<path class="st0" d="M1337.95,88.86c410.99,173.48,821.69,347.67,1232.57,521.48c-181.19,42.81-362.28,86.15-543.5,128.89
		c-27.81-64.59-62.42-126.21-102.9-183.67c-29.55-42.06-35.81-62.34-67.92-74.65c-12.37-4.84-440.57-135.39-943.52-99.61
		c-69.92,5.81-70.51-4.98-143.43,44.32c-72.13,53.29-136.61,117.77-185.78,193.04C407.59,542.85,231.68,467.1,55.83,391.2
		C246.42,345.91,1257.17,107.49,1337.95,88.86z"/>
	<path class="st0" d="M1858.67,509.7c11.47,11.53,174.71,200.33,219.05,491.38c-441.29-199.33-586.81,4.06-909.33-64.88
		c-115.17-23.97-326.32-143.5-673.74-28.35C527.2,700.84,647.8,522.94,826.86,416.83C861.5,397.62,1340.71,353.5,1858.67,509.7z"/>
	<path class="st0" d="M2075,751.57c8.99-1.76,17.83-4.19,26.78-6.14c120.56,113.36,241.69,87.83,198.43,201.79
		c-18.64,46.56-57.11,82.37-99.41,107.77c-2.19-7.44-5.28-14.76-10.53-20.55c26.62-17.36,52.48-36.11,81.56-84.85
		c48.15-84.97-32.17-76.59-135.64-147.31C2114.04,787.62,2093.95,770.12,2075,751.57z"/>
	<path class="st0" d="M2171.59,1046.65c13.86,25.83,1.47,108.62-1.82,126.15c-150.81,274.76-78.43,335.77-52.99,416.34
		c-43.79-77.33-63.9-160.55-49.7-253.17c-41.45,87.26-56.82,186.3-45.84,282.17c-17.65-105.16-3.07-214.92,38.55-312.96
		c-61.14,94.85-94.59,207.84-92.22,320.85c-43.08,21.14-87.89,13.06-119.31-14.78c85.76-288.21,242.9-439.01,250.34-455.14
		C2111.03,1127.94,2149.01,1040.16,2171.59,1046.65z"/>
</g>
</svg>
