<?xml version="1.0" encoding="utf-8"?>
<!-- Generator: Adobe Illustrator 25.4.1, SVG Export Plug-In . SVG Version: 6.00 Build 0)  -->
<svg version="1.1" id="Layer_1" xmlns="http://www.w3.org/2000/svg" xmlns:xlink="http://www.w3.org/1999/xlink" x="0px" y="0px"
	 viewBox="0 0 241.73 77.54" style="enable-background:new 0 0 241.73 77.54;" xml:space="preserve">
<style type="text/css">
	.st0{fill:#E1251B;}
	.st1{fill:none;stroke:#7A7C81;stroke-width:0.9103;}
	.st2{fill:#B76646;}
	.st3{fill:#7A7C81;}
</style>
<g>
	<g>
		<g>
			<g>
				<g>
					<path d="M20.33,37.05c2.03,0.06,1.87-1,1.87-2.06v-8.54c0-1.47,0.03-2.05-1.89-2.05c-2.07,0-2.09,0.52-2.03,2.39l0.21,7.71
						C18.54,36.22,18.45,36.99,20.33,37.05z M14.87,37.63v-0.6c1.73-0.17,1.81-0.28,1.79-2.54l-0.06-8.69h-0.09l-5.2,11.68h-0.43
						L6.11,26.11H6.07l-0.32,6.07c-0.08,1.75-0.08,2.69-0.06,3.54c0.04,1.02,0.55,1.17,1.96,1.32v0.6H2.68v-0.6
						c1.24-0.15,1.66-0.38,1.81-1.28c0.11-0.75,0.23-1.68,0.4-3.9l0.3-4.43c0.19-2.77,0.09-2.86-1.85-3.05v-0.6h3.49l4.86,10.65
						l4.92-10.65h9.76c2.71,0,4.71,0.55,6.03,1.81c1.04,1.02,1.79,2.58,1.79,4.58c0,2.56-0.98,4.45-2.62,5.69
						c-1.6,1.24-3.71,1.77-6.33,1.77H14.87z M24.03,34.84c0,1.62,0.7,2.02,2.26,2.02c3.98,0,5.82-2.98,5.82-6.39
						c0-2.19-0.81-4.09-2.51-5.09c-0.96-0.62-2.19-0.87-3.62-0.87c-0.89,0-1.45,0.11-1.66,0.26c-0.21,0.15-0.28,0.38-0.28,1.21
						V34.84z"/>
					<g>
						<path d="M42.39,25.71h-0.04c-0.71,1.92-1.43,3.85-2.09,5.68h4.1L42.39,25.71z M49.86,36.99c1.37,0,1.52-0.34,1.52-1.78V30.4
							c0-1.49-0.14-1.56-1.39-1.79v-0.53c1.12-0.21,2.21-0.49,3.23-0.95v1.86c0.47-0.35,0.98-0.7,1.56-1.09
							c0.65-0.42,1.25-0.7,1.93-0.7c1.84,0,3,1.28,3,3.53v4.49c0,1.58,0.12,1.67,1.46,1.81v0.6h-4.84v-0.6
							c1.37-0.14,1.53-0.33,1.53-1.93v-3.88c0-1.6-0.56-2.65-2.12-2.65c-0.93,0-1.84,0.58-2.53,1.19v5.46
							c0,1.58,0.14,1.67,1.51,1.81v0.6H44.57v-0.62c1.4-0.18,1.6-0.36,1.31-1.22c-0.29-0.87-0.74-2.07-1.23-3.43h-4.75
							c-0.36,1-0.69,1.94-0.98,2.87c-0.49,1.4-0.29,1.63,1.38,1.78v0.62h-4.83v-0.62c1.4-0.2,1.72-0.33,2.5-2.29l4.61-11.7l0.69-0.2
							c1.38,3.83,2.87,8.07,4.3,11.94C48.04,35.99,48.39,36.99,49.86,36.99z"/>
						<path d="M72.37,37.03c-0.51,0.09-2.25,0.4-3.6,0.88V36.4l-1.42,0.84c-0.91,0.53-1.54,0.67-1.81,0.67c-1.86,0-4.3-1.7-4.3-4.95
							c0-3.23,2.83-5.77,6-5.77c0.33,0,1,0.07,1.54,0.26v-1.99c0-1.53-0.12-1.6-1.79-1.72v-0.56c1.21-0.16,2.77-0.51,3.63-0.81
							v12.59c0,1.21,0.16,1.33,1.02,1.42l0.74,0.07V37.03z M68.77,29.24c-0.56-0.81-1.51-1.19-2.39-1.19
							c-1.07,0-3.02,0.91-3.02,4.28c0,2.77,1.7,4.12,3.19,4.12c0.84,0,1.67-0.37,2.23-0.79V29.24z"/>
						<path d="M80.55,35.66c-1.46,1.84-3.07,2.26-3.79,2.26c-2.86,0-4.53-2.32-4.53-4.95c0-1.6,0.58-3.02,1.53-4.07
							c0.95-1.07,2.21-1.7,3.4-1.7h0.02c1.93,0,3.49,1.72,3.49,3.53c0,0.46-0.12,0.65-0.54,0.74c-0.39,0.07-3.3,0.3-6.07,0.4
							c0.02,3.16,1.84,4.46,3.46,4.46c0.93,0,1.81-0.37,2.65-1.16L80.55,35.66z M76.6,28.06c-1.05,0-2.07,0.98-2.42,2.86
							c1.3,0,2.58-0.02,3.93-0.07c0.42,0,0.56-0.14,0.56-0.46c0.02-1.21-0.77-2.32-2.05-2.32H76.6z"/>
						<path d="M84.6,29.66c0.7-1.16,1.7-2.46,2.81-2.46c0.79,0,1.35,0.6,1.35,1.16c0,0.46-0.3,0.93-0.74,1.14
							c-0.28,0.12-0.49,0.09-0.63-0.05c-0.33-0.35-0.6-0.49-0.98-0.49c-0.61,0-1.35,0.7-1.86,2v4.25c0,1.53,0.12,1.67,1.91,1.81v0.6
							h-5.35v-0.6c1.44-0.14,1.6-0.28,1.6-1.81V30.4c0-1.53-0.12-1.63-1.44-1.81v-0.51c1.14-0.19,2.16-0.46,3.28-0.95v2.53H84.6z"/>
						<path d="M94.87,30.22c-0.44-1.37-1.26-2.3-2.39-2.3c-0.88,0-1.51,0.7-1.51,1.6c0,1.02,0.93,1.58,1.98,2.02
							c1.74,0.72,2.93,1.56,2.93,3.16c0,2.12-1.98,3.21-3.84,3.21c-1.19,0-2.26-0.44-2.67-0.79c-0.16-0.33-0.37-1.91-0.37-2.74
							l0.6-0.12c0.42,1.53,1.46,2.88,2.86,2.88c0.86,0,1.65-0.65,1.65-1.63c0-1.02-0.67-1.58-1.84-2.12
							c-1.4-0.65-2.91-1.42-2.91-3.21c0-1.63,1.39-3,3.53-3c0.95-0.02,1.58,0.21,2.07,0.4c0.19,0.53,0.44,1.91,0.51,2.49
							L94.87,30.22z"/>
						<path d="M102.05,27.2c2.86,0,5.02,2.3,5.02,5.18c0,3.74-2.74,5.53-5.04,5.53c-3.19,0-5.09-2.56-5.09-5.14
							c0-3.84,2.98-5.58,5.09-5.58H102.05z M101.78,27.96c-1.42,0-2.67,1.44-2.67,4.07c0,2.93,1.28,5.11,3.18,5.11
							c1.44,0,2.63-1.07,2.63-4.25c0-2.72-1.09-4.93-3.12-4.93H101.78z"/>
						<path d="M113.77,37.63v-0.6c1.37-0.14,1.53-0.33,1.53-1.93v-3.88c0-1.6-0.56-2.65-2.12-2.65c-0.93,0-1.84,0.58-2.53,1.19v5.46
							c0,1.58,0.14,1.67,1.51,1.81v0.6h-5.05v-0.6c1.58-0.16,1.7-0.28,1.7-1.81V30.4c0-1.49-0.14-1.56-1.39-1.79v-0.53
							c1.12-0.21,2.21-0.49,3.23-0.95v1.86c0.47-0.35,0.98-0.7,1.56-1.09c0.65-0.42,1.26-0.7,1.93-0.7c1.84,0,3,1.28,3,3.53v4.49
							c0,1.58,0.12,1.67,1.46,1.81v0.6H113.77z"/>
					</g>
					<g>
						<path d="M15.6,51.01c-0.31,1.02-0.86,2.66-1.26,3.39c-0.62,0.15-2.48,0.6-4.08,0.6c-5.52,0-7.94-3.81-7.94-7.34
							c0-4.66,3.59-7.74,8.54-7.74c1.8,0,3.3,0.49,3.93,0.6c0.18,1.26,0.31,2.15,0.44,3.35l-0.67,0.16c-0.58-2.35-1.91-3.3-4.3-3.3
							c-3.7,0-5.68,3.13-5.68,6.5c0,4.15,2.44,6.98,5.81,6.98c2.26,0,3.46-1.22,4.57-3.44L15.6,51.01z"/>
						<path d="M23.28,54.94c-0.35,0-0.83-0.21-1.09-0.44c-0.3-0.32-0.44-0.65-0.56-1.04c-0.93,0.63-2.04,1.48-2.73,1.48
							c-1.64,0-2.78-1.37-2.78-2.82c0-1.13,0.6-1.85,1.87-2.29c1.39-0.46,3.08-1.09,3.59-1.5v-0.42c0-1.67-0.79-2.61-1.94-2.61
							c-0.46,0-0.81,0.18-1.04,0.46c-0.3,0.3-0.51,0.81-0.69,1.5c-0.09,0.39-0.35,0.56-0.67,0.56c-0.42,0-1.02-0.46-1.02-1
							c0-0.35,0.3-0.6,0.74-0.93c0.65-0.46,2.15-1.36,3.47-1.62c0.69,0,1.39,0.21,1.9,0.62c0.81,0.67,1.04,1.62,1.04,2.82v4.3
							c0,1.04,0.42,1.39,0.81,1.39c0.28,0,0.6-0.12,0.83-0.26l0.23,0.6L23.28,54.94z M21.59,49.11c-0.49,0.26-1.6,0.74-2.08,0.97
							c-0.9,0.42-1.41,0.86-1.41,1.69c0,1.2,0.93,1.78,1.64,1.78c0.6-0.02,1.41-0.42,1.85-0.83V49.11z"/>
						<path d="M31.77,54.66v-0.6c1.37-0.14,1.53-0.32,1.53-1.92v-3.86c0-1.6-0.56-2.64-2.11-2.64c-0.93,0-1.83,0.58-2.52,1.18v5.44
							c0,1.57,0.14,1.67,1.5,1.8v0.6h-5.02v-0.6c1.57-0.16,1.69-0.28,1.69-1.8v-4.79c0-1.48-0.14-1.55-1.39-1.78v-0.53
							c1.11-0.21,2.2-0.49,3.22-0.95v1.85c0.46-0.35,0.97-0.69,1.55-1.09c0.65-0.42,1.25-0.69,1.92-0.69c1.83,0,2.99,1.27,2.99,3.52
							v4.47c0,1.57,0.12,1.67,1.46,1.8v0.6H31.77z"/>
						<path d="M45.1,52.58c-1.02,1.34-2.57,2.36-3.93,2.36c-2.92,0-4.63-2.36-4.63-4.84c0-1.78,0.76-3.33,2.31-4.54
							c1.2-0.93,2.59-1.3,3.47-1.3h0.02c0.93,0,1.69,0.3,2.06,0.6c0.3,0.26,0.37,0.46,0.37,0.72c0,0.49-0.51,0.99-0.76,0.99
							c-0.12,0-0.23-0.07-0.44-0.25c-0.69-0.65-1.5-0.95-2.31-0.95c-1.53,0-2.87,1.27-2.87,3.7c0,3.22,2.2,4.28,3.49,4.28
							c1,0,1.76-0.28,2.82-1.27L45.1,52.58z"/>
						<path d="M53.91,52.7c-1.46,1.83-3.05,2.25-3.77,2.25c-2.85,0-4.51-2.31-4.51-4.93c0-1.6,0.58-3.01,1.53-4.05
							c0.95-1.06,2.2-1.69,3.38-1.69h0.02c1.92,0,3.47,1.71,3.47,3.52c0,0.46-0.12,0.65-0.53,0.74c-0.39,0.07-3.29,0.3-6.04,0.39
							c0.02,3.15,1.83,4.44,3.45,4.44c0.92,0,1.8-0.37,2.64-1.16L53.91,52.7z M49.98,45.13c-1.04,0-2.06,0.97-2.41,2.85
							c1.3,0,2.57-0.02,3.91-0.07c0.42,0,0.56-0.14,0.56-0.46c0.02-1.2-0.76-2.31-2.04-2.31H49.98z"/>
						<path d="M58.17,46.73c0.69-1.16,1.69-2.45,2.8-2.45c0.79,0,1.34,0.6,1.34,1.16c0,0.46-0.3,0.93-0.74,1.13
							c-0.28,0.12-0.49,0.09-0.62-0.05c-0.32-0.35-0.6-0.49-0.97-0.49c-0.6,0-1.34,0.69-1.85,1.99v4.23c0,1.53,0.12,1.67,1.9,1.8
							v0.6H54.7v-0.6c1.43-0.14,1.6-0.28,1.6-1.8v-4.79c0-1.53-0.12-1.62-1.43-1.8v-0.51c1.13-0.19,2.15-0.46,3.26-0.95v2.52H58.17z
							"/>
					</g>
					<g>
						<path d="M78.26,51.01c-0.31,1.02-0.86,2.66-1.26,3.39c-0.62,0.15-2.48,0.6-4.08,0.6c-5.52,0-7.94-3.81-7.94-7.34
							c0-4.66,3.59-7.74,8.54-7.74c1.8,0,3.3,0.49,3.93,0.6c0.18,1.26,0.31,2.15,0.44,3.35l-0.67,0.16c-0.58-2.35-1.91-3.3-4.3-3.3
							c-3.7,0-5.68,3.13-5.68,6.5c0,4.15,2.44,6.98,5.81,6.98c2.26,0,3.46-1.22,4.57-3.44L78.26,51.01z"/>
						<path d="M85.8,52.7c-1.46,1.83-3.05,2.25-3.77,2.25c-2.85,0-4.51-2.31-4.51-4.93c0-1.6,0.58-3.01,1.53-4.05
							c0.95-1.06,2.2-1.69,3.38-1.69h0.02c1.92,0,3.47,1.71,3.47,3.52c0,0.46-0.12,0.65-0.53,0.74c-0.39,0.07-3.29,0.3-6.04,0.39
							c0.02,3.15,1.83,4.44,3.45,4.44c0.93,0,1.8-0.37,2.64-1.16L85.8,52.7z M81.86,45.13c-1.04,0-2.06,0.97-2.41,2.85
							c1.3,0,2.57-0.02,3.91-0.07c0.42,0,0.56-0.14,0.56-0.46c0.02-1.2-0.76-2.31-2.04-2.31H81.86z"/>
						<path d="M92.88,54.66v-0.6c1.36-0.14,1.53-0.32,1.53-1.92v-3.86c0-1.6-0.56-2.64-2.11-2.64c-0.93,0-1.83,0.58-2.52,1.18v5.44
							c0,1.57,0.14,1.67,1.5,1.8v0.6h-5.02v-0.6c1.57-0.16,1.69-0.28,1.69-1.8v-4.79c0-1.48-0.14-1.55-1.39-1.78v-0.53
							c1.11-0.21,2.2-0.49,3.22-0.95v1.85c0.46-0.35,0.97-0.69,1.55-1.09c0.65-0.42,1.25-0.69,1.92-0.69c1.83,0,2.98,1.27,2.98,3.52
							v4.47c0,1.57,0.12,1.67,1.46,1.8v0.6H92.88z"/>
						<path d="M101.86,54.64c-0.39,0.21-0.76,0.3-0.97,0.3c-1.46,0-2.27-0.93-2.27-2.75v-6.73h-1.6l-0.09-0.23l0.63-0.67h1.06v-1.69
							l1.5-1.53l0.32,0.05v3.17h2.61c0.21,0.23,0.14,0.74-0.14,0.9h-2.48v5.95c0,1.87,0.76,2.22,1.34,2.22
							c0.58,0,1.11-0.23,1.43-0.39l0.21,0.6L101.86,54.64z"/>
						<path d="M111.42,52.7c-1.46,1.83-3.05,2.25-3.77,2.25c-2.85,0-4.51-2.31-4.51-4.93c0-1.6,0.58-3.01,1.53-4.05
							c0.95-1.06,2.2-1.69,3.38-1.69h0.02c1.92,0,3.47,1.71,3.47,3.52c0,0.46-0.12,0.65-0.53,0.74c-0.39,0.07-3.29,0.3-6.04,0.39
							c0.02,3.15,1.83,4.44,3.45,4.44c0.93,0,1.81-0.37,2.64-1.16L111.42,52.7z M107.49,45.13c-1.04,0-2.06,0.97-2.41,2.85
							c1.3,0,2.57-0.02,3.91-0.07c0.42,0,0.56-0.14,0.56-0.46c0.02-1.2-0.76-2.31-2.04-2.31H107.49z"/>
						<path d="M115.51,46.73c0.69-1.16,1.69-2.45,2.8-2.45c0.79,0,1.34,0.6,1.34,1.16c0,0.46-0.3,0.93-0.74,1.13
							c-0.28,0.12-0.49,0.09-0.63-0.05c-0.32-0.35-0.6-0.49-0.97-0.49c-0.6,0-1.34,0.69-1.85,1.99v4.23c0,1.53,0.12,1.67,1.9,1.8
							v0.6h-5.32v-0.6c1.43-0.14,1.6-0.28,1.6-1.8v-4.79c0-1.53-0.12-1.62-1.43-1.8v-0.51c1.13-0.19,2.15-0.46,3.26-0.95v2.52
							H115.51z"/>
					</g>
				</g>
				<g>
					<polygon points="3.07,15.86 4.47,15.86 4.47,19.84 5.17,19.84 5.17,15.86 6.55,15.86 6.55,15.19 3.07,15.19 					"/>
					<polygon points="10.42,17.09 8.37,17.09 8.37,15.19 7.67,15.19 7.67,19.84 8.37,19.84 8.37,17.76 10.42,17.76 10.42,19.84 
						11.12,19.84 11.12,15.19 10.42,15.19 					"/>
					<polygon points="13.47,17.78 15.57,17.78 15.57,17.1 13.47,17.1 13.47,15.86 15.66,15.86 15.66,15.19 12.77,15.19 12.77,19.84 
						15.75,19.84 15.75,19.16 13.47,19.16 					"/>
					<path d="M22.36,18.14c-0.03,0.71-0.41,1.11-1.04,1.11c-0.63,0-1.01-0.41-1.04-1.11v-2.96h-0.7v2.97
						c0.01,1.09,0.68,1.77,1.74,1.77c1.06,0,1.73-0.68,1.74-1.77v-2.97h-0.7V18.14z"/>
					<polygon points="27.55,18.63 25.39,15.19 24.7,15.19 24.7,19.84 25.41,19.84 25.41,16.46 27.52,19.84 28.25,19.84 28.25,15.19 
						27.55,15.19 					"/>
					<rect x="30.02" y="15.17" width="0.7" height="4.67"/>
					<polygon points="33.82,18.83 32.53,15.19 31.77,15.19 33.47,19.84 34.13,19.84 35.81,15.19 35.09,15.19 					"/>
					<polygon points="37.54,17.78 39.64,17.78 39.64,17.1 37.54,17.1 37.54,15.86 39.72,15.86 39.72,15.19 36.83,15.19 36.83,19.84 
						39.81,19.84 39.81,19.16 37.54,19.16 					"/>
					<path d="M44.39,18.85c-0.01-0.14-0.03-0.29-0.05-0.47c-0.04-0.36-0.11-0.75-0.45-0.96c0.36-0.2,0.56-0.53,0.56-0.93
						c0-0.48-0.18-0.84-0.52-1.04c-0.38-0.23-0.74-0.25-1.1-0.25h-1.57v4.65h0.7v-2.07h0.92c0.66,0,0.69,0.05,0.78,1.02
						c0.02,0.31,0.05,0.63,0.16,0.94l0.04,0.1h0.85l-0.16-0.24C44.44,19.43,44.42,19.22,44.39,18.85z M41.96,15.86l0.89,0
						c0.54,0,0.87,0.1,0.87,0.62c0,0.52-0.38,0.62-1.08,0.62h-0.68V15.86z"/>
					<path d="M47.49,17.18c-0.64-0.21-1.03-0.37-1.03-0.81c0-0.44,0.51-0.6,0.85-0.6c0.51,0,0.78,0.17,0.79,0.52l0,0.15h0.75
						l-0.02-0.17c-0.08-0.74-0.66-1.17-1.57-1.17c-0.75,0-1.54,0.47-1.54,1.33c0,0.95,0.95,1.25,1.64,1.47
						c0.08,0.03,0.16,0.05,0.24,0.08c0.39,0.13,0.57,0.32,0.57,0.61c0,0.49-0.55,0.68-0.89,0.68c-0.82,0-0.93-0.4-0.93-0.71l0-0.15
						h-0.73l0,0.16c0.02,0.78,0.64,1.37,1.45,1.37c1.19,0,1.84-0.49,1.84-1.39C48.91,17.64,48.12,17.38,47.49,17.18z"/>
					<rect x="50.34" y="15.17" width="0.7" height="4.67"/>
					<polygon points="52.08,15.86 53.48,15.86 53.49,19.84 54.18,19.84 54.19,15.86 55.56,15.86 55.56,15.19 52.08,15.19 					"/>
					<polygon points="58.11,17.15 56.87,15.19 56,15.19 57.73,17.85 57.73,19.84 58.43,19.84 58.43,17.84 60.15,15.19 59.36,15.19 
											"/>
					<path d="M65.11,15.1c-1.29,0-2.09,0.92-2.09,2.41c0,1.49,0.8,2.41,2.09,2.41c1.29,0,2.09-0.92,2.09-2.41
						C67.2,16.02,66.4,15.1,65.11,15.1z M65.11,19.25c-1,0-1.36-0.9-1.36-1.74c0-0.84,0.36-1.74,1.36-1.74c1,0,1.36,0.9,1.36,1.74
						C66.47,18.35,66.11,19.25,65.11,19.25z"/>
					<polygon points="68.61,19.84 69.31,19.84 69.31,17.75 71.3,17.75 71.3,17.08 69.31,17.08 69.31,15.86 71.37,15.86 71.37,15.19 
						68.61,15.19 					"/>
					<polygon points="74.48,15.86 75.88,15.86 75.89,19.84 76.59,19.84 76.59,15.86 77.97,15.86 77.97,15.19 74.48,15.19 					"/>
					<polygon points="79.95,17.78 82.05,17.78 82.05,17.1 79.95,17.1 79.95,15.86 82.13,15.86 82.13,15.19 79.25,15.19 79.25,19.84 
						82.22,19.84 82.22,19.16 79.95,19.16 					"/>
					<polygon points="87.37,15.19 86.55,15.19 85.36,16.89 84.21,15.19 83.32,15.19 84.9,17.45 83.24,19.84 84.07,19.84 85.3,18.02 
						86.53,19.84 87.41,19.84 85.76,17.45 					"/>
					<path d="M89.77,15.19l-1.84,4.65h0.74l0.46-1.17h1.94l0.46,1.17h0.76l-1.85-4.65H89.77z M89.38,17.99l0.73-1.85l0.71,1.85
						H89.38z"/>
					<path d="M94.81,17.18c-0.64-0.21-1.03-0.37-1.03-0.81c0-0.44,0.51-0.6,0.85-0.6c0.51,0,0.78,0.17,0.79,0.52l0,0.15h0.75
						l-0.02-0.17c-0.09-0.74-0.66-1.17-1.57-1.17c-0.75,0-1.54,0.47-1.54,1.33c0,0.95,0.95,1.25,1.64,1.47
						c0.08,0.03,0.16,0.05,0.24,0.08c0.4,0.13,0.57,0.32,0.57,0.61c0,0.49-0.55,0.68-0.89,0.68c-0.82,0-0.93-0.4-0.93-0.71l0-0.15
						h-0.73l0,0.16c0.02,0.78,0.64,1.37,1.45,1.37c1.19,0,1.84-0.49,1.84-1.39C96.23,17.64,95.44,17.38,94.81,17.18z"/>
				</g>
				<path class="st0" d="M50.11,48.9c0.76,0.13,0.8-0.08,1.59,0.01c0.12,0.05,0.12,0.14,0.27,0.14l0.2-0.07l0.02,0.08
					c0.11-0.03,0.67-0.02,0.57-0.12c0.97-0.03,1.62,0.03,2.51,0.23c0.15,0.03,0.47,0.03,0.62,0.06c0.12,0.03,0.86,0.1,0.98,0.13
					c0.68,0.16,1.14,0.13,1.56,0.28c0.44,0.18,0.85,0.27,1.36,0.28c0.96,0.4,1.85,0.77,2.81,0.97c0.14,0.03,0.28,0.07,0.41,0.18
					c0.06,0.05,0.22,0.18,0.3,0.15c0.06,0.07-0.02,0.22,0.01,0.29c0.05,0.15-0.01,0.28-0.25,0.3c-0.29-0.12-0.31,0.14-0.46,0.16
					c-0.75,0.1-1.51-0.42-2.28-0.18c-0.11,0.01,0.08-0.36-0.16-0.31c-0.91,0.4-2.17-0.11-3.14-0.63l0.07-0.1
					c-0.18-0.1-0.47,0.21-0.67,0.14c0.01-0.07,0.08-0.09,0.04-0.19c-0.08,0.2-0.38,0.05-0.49,0.19c-0.07-0.09-0.04-0.25-0.14-0.36
					l-0.15,0.22c-0.39,0.52-0.79-0.13-1.27,0.11c0.03-0.05,0.08-0.09,0.05-0.15c-0.76,0.25-1.65,0.1-2.46,0.14
					c0.04-0.08,0.09-0.23,0.05-0.33c-0.06,0.24-0.32,0.28-0.54,0.31c-0.07-0.27-0.39,0.2-0.63,0.03l0.03-0.05
					c-0.21,0.25-0.26-0.18-0.44,0.13l-0.1-0.21c-0.11,0.35-0.25-0.21-0.42-0.04l0,0.07c-0.15,0.07-0.21-0.11-0.35-0.07l-0.01-0.04
					c-0.32,0.07-0.31,0.09-0.55,0.01c-0.09-0.24-0.34,0.1-0.49-0.25c-1.07,0.2-1.43,0-2.48-0.07c-0.11-0.12-0.18-0.16-0.2-0.27
					c-0.11,0.05-0.4,0.02-0.5,0.16c0.04,0-0.06-0.15-0.11-0.17c-0.18-0.12-0.23,0.29-0.43,0.15c0.09-0.07,0.12-0.16,0.1-0.26
					c-0.19,0.21-0.43,0.15-0.65,0.21c0.04-0.04,0.09-0.07,0.09-0.16c-0.25,0.23-0.42-0.08-0.63,0.07l0.09-0.16
					c-0.31-0.22-0.12,0.33-0.39,0.2c0.07-0.05,0.05-0.11,0.07-0.18c-0.28,0.28-0.7,0.16-0.97,0.24c0.02-0.02,0.01-0.07,0.01-0.07
					c-0.29,0.02-0.58-0.09-0.9,0.02c-0.11-0.08,0.06-0.4-0.25-0.35c-0.01,0.33-0.52,0.11-0.36,0.49c-0.26-0.07-0.66-0.21-0.84-0.11
					c0.12-0.12-0.11-0.41,0.11-0.42l-0.15-0.21c0.03-0.13,0.17,0.05,0.12-0.12c-0.11,0.01-0.43,0.12-0.52,0.06
					c-0.21,0.19-0.41,0.56-0.73,0.59c0.16-0.12-0.07-0.36,0.03-0.42l-0.48,0.61c-0.11,0.01-0.01-0.26-0.17-0.18
					c0,0.09-0.07,0.14-0.12,0.21c-0.04-0.04-0.45,0.06-0.48-0.26c-0.04-0.13,0.18-0.06,0.06-0.18c-0.2,0-0.21,0.1-0.41,0.1l0-0.04
					c-0.13-0.05-0.39,0.13-0.25,0.31c0.09,0.01-0.03-0.2,0.1-0.1c-0.1,0.18-0.33,0.23-0.53,0.23c0.07-0.05,0.06-0.14,0.09-0.23
					l-0.7,0.22c-0.37-0.22-0.79,0.27-1.1-0.04c0.05-0.03,0.02,0.22,0.02,0.17c-0.18-0.02-0.17-0.24-0.29-0.17
					c-0.01-0.13-0.15,0.04-0.27,0.08c-0.07,0.09-0.03-0.06,0.08-0.08c-0.17,0.11-0.86,0.29-1.25,0.09c0.01,0.09-0.25,0.31-0.34,0.3
					l0.04-0.2c-0.08-0.12-0.3,0.01-0.32-0.16l0.18,0.03c-0.18,0.01-0.36,0.23-0.53,0.04c0.05,0.03,0.15-0.28,0-0.26
					c-0.26,0.03-0.07,0.1-0.29,0.16l-0.13,0.08c-0.01,0.2-0.23-0.03-0.14,0.19c-0.03-0.16-0.38,0.1-0.35-0.23l0.04-0.26
					c-0.11,0.02-0.19,0.27-0.27,0.38c-0.01-0.02-0.04-0.07-0.04-0.12c-0.02,0.39-0.27-0.04-0.4,0.27c-0.23-0.14-0.6-0.01-0.71-0.25
					c-0.18,0.12-0.34,0.26-0.55,0.18c0.04-0.04,0.1-0.05,0.11-0.13c-0.13-0.12-0.16-0.01-0.28,0.05c0.03-0.06-0.26-0.23-0.41-0.37
					c-0.18,0.12-0.12,0.33-0.13,0.46c-0.17-0.39-0.51,0.25-0.72-0.1c0.06-0.05,0.26-0.19,0.11-0.29c-0.17-0.38-0.33,0.29-0.6,0.11
					l0.07,0.32c-0.12-0.2-0.39,0.19-0.37-0.14c-0.09,0.12-0.32-0.1-0.28,0.21c-0.44-0.26-1.06,0.17-1.34-0.39l-0.19-0.06
					c-0.3-0.19-0.31,0.53-0.7,0.41c0.02-0.13-0.01-0.18-0.13-0.16l-0.21,0.22c-0.25-0.05-0.14-0.29-0.15-0.51
					c-0.13,0.04-0.3,0.03-0.36,0.19l-0.16-0.28c0.12,0.2-0.11,0.13-0.17,0.19l0.06-0.05c-0.02-0.09-0.18-0.04-0.26-0.01
					c0.02,0.14,0.18,0.19,0.26,0.23c-0.07,0.1-0.17,0.07-0.26,0.19c0.03-0.22-0.22-0.15-0.32-0.17c-0.12-0.05-0.14,0.19-0.17,0.19
					c0-0.11-0.2-0.02-0.1-0.18c0.04-0.04-0.07,0.07,0-0.02c-0.08-0.08,0.09-0.24-0.08-0.1c-0.12,0.11,0.03,0.42-0.2,0.29
					c0.06-0.05,0.07-0.14,0.12-0.22l-0.22-0.11l-0.01,0.2c-0.03-0.05-0.01-0.07-0.02-0.09c-0.07,0.21-0.34,0.06-0.39,0.3
					c-0.11,0.02-0.24-0.13-0.34-0.16l0.02-0.02c-0.13-0.11-0.3-0.04-0.41,0.09l0.01-0.04c-0.07-0.02-0.24,0.02-0.33,0.13
					c-0.18-0.15-0.06-0.74-0.26-0.49c-0.18,0.01-0.29,0.36-0.21,0.48c-0.33-0.13-0.7,0.19-1.01-0.12c-0.05,0.08-0.02,0.13-0.12,0.17
					c-0.48-0.08-1.02,0.23-1.41-0.15c0.14-0.08,0.01-0.2,0.01-0.31c-0.12,0.18-0.14-0.18-0.18,0.12c0.01,0.18,0,0.26,0.14,0.33
					c-0.29,0.1-0.73,0.09-0.89-0.07c0.08,0.08,0.02,0.14-0.05,0.19c0.02-0.28-0.19-0.33-0.35-0.23l-0.02,0.17l-0.1-0.18
					c-0.06,0.05-0.07,0.36-0.23,0.2l-0.05-0.18c-0.17,0.14-0.4,0.38-0.58,0.23l-0.15-0.25c-0.08,0.03-0.21,0.18-0.07,0.25
					c-0.31-0.15-0.51-0.17-0.6-0.39c-0.53,0.53-1.3,0.55-1.92,0.51l0.02-0.13c-0.17-0.12-0.09,0.23-0.2,0.14
					c0.05-0.12-0.13-0.27,0-0.42c-0.24-0.14-0.31,0.22-0.46,0.28c-0.02,0.17,0.12-0.11,0.09,0.11c-0.03,0.06-0.33-0.13-0.37,0.12
					c-0.06-0.1-0.01-0.29,0.02-0.39l-0.14,0.12c-0.18-0.3,0.4-0.53,0.22-0.9l-0.13,0.04l-0.12,0.22c-0.3,0.07-0.14,0.61-0.47,0.59
					c-0.09-0.15,0.26-0.04,0.2-0.25c-0.15-0.21-0.31,0.11-0.44,0.04c0.15,0.1,0.02,0.35-0.07,0.4c-0.17-0.12,0.11-0.24-0.13-0.27
					c-0.04,0.15-0.25,0.26-0.07,0.36c-0.09,0.34-0.24-0.09-0.37,0.17c-0.08-0.24,0.24-0.55-0.02-0.66c0.04,0.23-0.32,0.31-0.18,0.65
					c-0.1-0.06-0.11-0.24-0.04-0.38c-0.14-0.14-0.35,0.41-0.4-0.04l-0.05,0.23c-0.05-0.08-0.11-0.13-0.18-0.26
					c-0.13,0-0.41,0.32-0.4-0.04c-0.04,0.04-0.33,0.02-0.22,0.26c0.18,0.15,0.21-0.18,0.31,0.15c-0.13-0.27-0.26,0.04-0.36,0.13
					l-0.02-0.14c-0.06,0.05-0.2,0.02-0.24,0.17c0.05-0.08,0.02-0.17-0.03-0.2l-0.06,0.21c-0.25,0.1-0.06-0.36-0.3-0.3l0.19-0.16
					c-0.04,0.04-0.12-0.16-0.24-0.09c-0.05,0.19-0.13,0.42-0.17,0.56c-0.14,0.08-0.06-0.21-0.2-0.02l0.18-0.23
					c0.03-0.06-0.12-0.31-0.3-0.31c-0.12,0.07-0.3,0.34-0.11,0.44c-0.09,0-0.22-0.11-0.15-0.25c-0.21,0.07,0.03,0.2-0.15,0.32
					c-0.07-0.13-0.31-0.3-0.45-0.49l0.19-0.32l-0.13,0c0.16-0.25-0.21,0.04-0.12-0.23c-0.09-0.04-0.19,0.05-0.27,0.12
					c0.25,0.43-0.15,0.35-0.08,0.74c-0.34,0.11-0.1-0.92-0.45-0.31c0.06,0.1,0.14,0.05-0.01,0.26c-0.21-0.04-0.14,0.39-0.4,0.23
					c0.19-0.16-0.2-0.39,0.06-0.63c-0.02,0.13,0.15,0.1,0.19,0.06c-0.09-0.15,0.02-0.39-0.2-0.39c-0.13,0.04-0.32,0.05-0.29,0.25
					c0.01,0.22,0.2-0.03,0.12,0.2c-0.26,0.08-0.31-0.26-0.42,0.14c0.17-0.03,0.21,0.2,0.21,0.35l-0.19,0.1l0.04-0.15
					c-0.31-0.1-0.09,0.27-0.39,0.23l-0.15-0.29c0.07-0.25,0.44,0.11,0.38-0.3c-0.2-0.02-0.26,0.19-0.45,0.09l0.14-0.08
					c-0.07-0.01,0.11-0.44-0.17-0.11c-0.14,0.13-0.29,0.03-0.3,0.18c-0.32,0.05-0.41,0.21-0.61,0.24c0.04-0.3-0.36-0.02-0.14-0.33
					c0.11,0.17,0.38,0.11,0.49-0.18c-0.12-0.35,0.26-0.03,0.49-0.27c-0.25,0-0.25-0.35-0.29-0.58c-0.07-0.01-0.14,0.08-0.18,0.12
					c-0.03,0.22,0.07,0.21,0.07,0.43c-0.28-0.05-0.56,0.07-0.71,0.28c-0.1-0.11-0.07-0.32,0.04-0.34c-0.34,0.07-0.53,0.07-0.85,0.01
					c-0.25,0.04-0.45,0.34-0.6,0.16c-0.22,0.16,0.01-0.2-0.22-0.19c-0.22,0.16-0.32,0.03-0.56,0.09c-0.27-0.08-0.52-0.26-0.8-0.28
					c-0.09,0.03-0.11-0.08-0.19-0.08l-0.06-0.09l-0.05-0.05c0,0-0.06,0.01-0.06-0.21c0-0.22,0.04-0.25,0.04-0.25l-0.01-0.62
					c0.19-0.1,0.18-0.43,0.44-0.39c0.59-0.17,1.09,0.01,1.2,0.28c0.06,0.16,0.02,0.38,0.02,0.38c0.17-0.39,0.6,0.05,0.84-0.13
					c0.42,0.16,0.9-0.18,1.12,0.12c0.73-0.15,1.37-0.29,2.13-0.23l-0.13,0.26c0.13-0.19,0.09,0.15,0.22,0.11
					c-0.16-0.2,0.18-0.27,0.28-0.43c0.34,0.2,0.77-0.02,1.07-0.21l0.01,0.18c0.3-0.34,0.66-0.04,1.04,0.01
					c0.04,0.07,0.11,0.24,0.22,0.22c0.2-0.29,0.31-0.27,0.61-0.45c0.22,0,0.58,0.07,0.8,0.18c0.83-0.41,1.67-0.14,2.52-0.39
					l0.06,0.21c0.83-0.45,1.85-0.04,2.56-0.27l-0.07,0.36c0.22,0.11,0.51-0.09,0.45-0.35c0.22,0.11,0.56-0.17,0.7,0.12
					c0.23,0.07,0.28-0.17,0.47-0.21l0.95,0.02c-0.05,0.08-0.05,0.23,0.06,0.25c0.16-0.1,0.59,0.1,0.43-0.33
					c0.46,0.25,1.07-0.2,1.52,0.13c-0.04-0.12,0.08-0.14,0.12-0.22c0.4-0.01,0.83,0.23,1.15,0.03c0.06,0.06-0.1,0.2,0.06,0.21
					c0.1-0.05,0-0.15,0.12-0.22c0.65-0.22,1.32,0.22,1.91,0.17c1.05-0.23,2.15-0.12,3.16-0.16l-0.01,0.09
					c0.34-0.33,0.8,0.33,1.06-0.17c0.08,0.08,0.3,0.04,0.25,0.2c0.27-0.23,0.75,0.21,1.14-0.09c-0.04-0.01-0.06,0.01-0.1,0.05
					c0.39,0.18,0.74-0.08,1.16,0.1c-0.04,0.04-0.12,0.06-0.13,0.15c0.16,0.16,0.38-0.37,0.47,0.05c0.09,0,0.07-0.21,0.01-0.2
					c0.92,0.15,1.89-0.1,2.85-0.18c0.68,0.26,0.03,0.7,0.57,0.4c0.04,0.08,0.03-0.16,0.04-0.07c0.21-0.11,0.32,0.47,0.46,0.26
					c-0.06-0.26,0.1-0.14,0.11-0.3c0.41,0.17,0.49,0.41,0.82,0.22l-0.03,0.13c0.39-0.37,0.84-0.15,1.17-0.58
					c2.13-0.02,4.18-0.16,6.26-0.1c2.04,0.21,2.43-0.02,4.49,0.39c0.82,0.1,1.76,0.25,2.53,0.35L50.11,48.9z"/>
			</g>
			<path d="M120.82,45.17c0-0.74,0.61-1.35,1.36-1.35c0.75,0,1.35,0.61,1.35,1.35c0,0.75-0.6,1.36-1.35,1.36
				C121.43,46.52,120.82,45.92,120.82,45.17z M123.31,45.17c0-0.66-0.47-1.13-1.13-1.13c-0.66,0-1.14,0.47-1.14,1.13
				c0,0.67,0.48,1.14,1.14,1.14C122.84,46.31,123.31,45.83,123.31,45.17z M121.87,45.93h-0.2v-1.55h0.67c0.4,0,0.54,0.15,0.54,0.43
				c0,0.3-0.21,0.41-0.48,0.43l0.46,0.69h-0.22l-0.44-0.69h-0.33V45.93z M122.15,45.07c0.21,0,0.52,0.04,0.52-0.26
				c0-0.21-0.18-0.24-0.37-0.24h-0.42v0.5H122.15z"/>
		</g>
		<line class="st1" x1="134.31" y1="15.14" x2="134.31" y2="54.55"/>
		<g>
			<g>
				<path class="st2" d="M206.56,1.34c0-0.03,0.01-0.06,0.01-0.09c0-0.69-0.56-1.25-1.25-1.25c-0.7,0-1.25,0.56-1.25,1.25
					c0,0.03,0.01,0.05,0.01,0.07h0v3.42h2.5V1.34z"/>
				<polygon class="st2" points="206.56,11.68 206.56,8.2 204.07,8.2 204.07,11.68 204.06,11.68 204.06,11.73 206.56,11.73 				"/>
				<path class="st2" d="M204.06,18.6c0,0.01,0,0.01,0,0.02c0,0.69,0.56,1.26,1.25,1.26c0.69,0,1.25-0.56,1.25-1.26
					c0-0.03-0.01-0.06-0.01-0.09v-3.34h-2.5V18.6z"/>
				<path class="st2" d="M207.57,7.94L207.57,7.94l-0.01,0.31h2.5V7.73h0v-2.5h0V1.35c0-0.03,0.01-0.06,0.01-0.09
					c0-0.69-0.56-1.25-1.25-1.25c-0.69,0-1.26,0.56-1.26,1.25c0,0.03,0.01,0.05,0.01,0.07h0v3.1h0.01V7.94z"/>
				<path class="st2" d="M210.05,11.68h-2.49v3.73h-0.01v3.19c0,0,0,0.01,0,0.01c0,0.69,0.56,1.26,1.26,1.26
					c0.69,0,1.25-0.56,1.25-1.26c0-0.03-0.01-0.06-0.01-0.09v-2.89h0V11.68z"/>
				<path class="st2" d="M211.05,12.22h-0.52v2.49h3.56v0.01h3.33c0,0,0.01,0,0.02,0c0.01,0,0.01,0,0.02,0h0l0,0
					c0.68-0.01,1.23-0.57,1.23-1.25c0-0.69-0.56-1.26-1.25-1.26c-0.03,0-0.06,0.01-0.09,0.01h-3.79v0L211.05,12.22L211.05,12.22z"/>
				<path class="st2" d="M211.05,18.6c0,0,0,0.01,0,0.01c0,0.69,0.56,1.26,1.26,1.26c0.69,0,1.25-0.56,1.25-1.26
					c0-0.03-0.01-0.06-0.01-0.09v-3.34h-2.5V18.6z"/>
				<polygon class="st2" points="213.55,11.68 213.55,8.2 211.06,8.2 211.06,11.68 211.05,11.68 211.05,11.73 213.55,11.73 
					213.55,11.68 				"/>
				<path class="st2" d="M213.55,1.34c0-0.03,0.01-0.06,0.01-0.09c0-0.69-0.56-1.25-1.25-1.25c-0.7,0-1.26,0.56-1.26,1.25
					c0,0.03,0.01,0.05,0.01,0.07h-0.01v3.42h2.5V1.34z"/>
				<path class="st2" d="M207.09,14.71v-2.49h-0.53v0h-2.5v0h-3.79c-0.03,0-0.06-0.01-0.09-0.01c-0.69,0-1.25,0.56-1.25,1.26
					c0,0.69,0.56,1.25,1.25,1.25c0,0,0.01,0,0.01,0h3.27v-0.01H207.09z"/>
				<polygon class="st2" points="207.04,11.22 207.07,11.22 207.07,11.2 210.58,11.2 210.58,8.73 207.07,8.73 207.07,8.72 
					207.04,8.72 				"/>
				<path class="st2" d="M200.28,8.72c-0.03,0-0.06-0.01-0.09-0.01c-0.69,0-1.25,0.56-1.25,1.26c0,0.69,0.55,1.24,1.24,1.25l0,0h0
					c0,0,0.01,0,0.01,0c0,0,0.01,0,0.01,0h3.4v-2.5H200.28z"/>
				<path class="st2" d="M217.42,11.22c0,0,0.01,0,0.01,0c0.01,0,0.01,0,0.01,0h0.01v0c0.68-0.01,1.23-0.57,1.23-1.25
					c0-0.69-0.56-1.26-1.25-1.26c-0.03,0-0.06,0.01-0.09,0.01h-3.32v2.5H217.42z"/>
				<path class="st2" d="M210.58,7.73L210.58,7.73l3.51-0.01v0.01h3.33c0.01,0,0.01,0,0.02,0c0.01,0,0.01,0,0.01,0h0.01v0
					c0.68-0.01,1.23-0.57,1.23-1.25c0-0.69-0.56-1.25-1.25-1.25c-0.03,0-0.06,0.01-0.09,0.01h-3.25v0h-3.51v0h-0.05v2.5H210.58z"/>
				<path class="st2" d="M206.88,7.72L206.88,7.72l0.21,0.01v-2.5h-0.11v0h-3.51v0h-3.19c-0.03,0-0.06-0.01-0.09-0.01
					c-0.69,0-1.25,0.56-1.25,1.25c0,0.69,0.55,1.25,1.24,1.25l0,0h0c0.01,0,0.01,0,0.01,0c0,0,0.01,0,0.01,0h3.17V7.72H206.88z"/>
			</g>
			<path class="st3" d="M241.62,33.78l-0.68-0.07c-0.9-0.1-0.95-0.38-0.95-2.18v-4.19c0-1.75-0.85-3.23-3.23-3.23
				c-1.28,0-2.48,0.6-3.39,1.3c-0.07-0.05-0.1-0.25-0.1-0.48v-5.27c0-1.1,0.05-2.36,0.08-3.11c-0.05-0.1-0.15-0.15-0.25-0.15
				c-0.9,0.48-2.08,0.85-2.71,1.05c-0.13,0.07-0.13,0.43,0,0.5l0.25,0.15c0.75,0.45,0.78,0.6,0.78,2.08v11.33
				c0,0.65,0,1.1-0.05,1.42c-0.28,0.74-1.02,0.68-1.55,0.67c-2.25-0.03-2.53-1.33-2.53-2.78v-4.69c0-0.53,0.03-0.6,0.45-0.6h1.89
				c0.23-0.15,0.28-0.83-0.03-1.05h-1.84c-0.43,0-0.45-0.03-0.45-0.48v-2.07c-0.1-0.18-0.51-0.09-0.59,0
				c-0.31,0.58-0.53,1.73-1.03,2.29c-0.21,0.23-0.81,0.53-1.54,0.75c-0.1,0.15-0.1,0.46,0.05,0.57h0.7c0.5,0,0.53,0.05,0.53,0.73
				v5.74c0.02,0.91,0.93,2.31,3.14,2.39c0,0,0,0.01,0,0.01c0.05,0,0.11,0,0.17,0c0.03,0,0.06,0,0.09,0c0.04,0,0.07,0,0.11-0.01
				c1.06-0.01,2.6-0.01,3.4-0.01c0.88,0,1.6,0.02,2.36,0.07c0.17-0.08,0.23-0.57,0.05-0.68l-0.53-0.07
				c-0.9-0.13-0.95-0.38-0.95-2.18v-4.21c0-0.88,0.08-1,0.53-1.38c0.45-0.38,1.1-0.68,1.96-0.68c1.6,0,2.38,1.08,2.38,2.68v3.59
				c0,1.81-0.02,2.03-0.95,2.18l-0.5,0.07c-0.17,0.13-0.13,0.6,0.05,0.68c0.68-0.05,1.43-0.07,2.33-0.07c0.88,0,1.6,0.02,2.51,0.07
				C241.74,34.38,241.79,33.91,241.62,33.78z"/>
			<path class="st3" d="M223.63,33.81l-0.6-0.07c-0.89-0.12-0.94-0.37-0.94-2.16V19.83c0-1.09,0.05-2.33,0.07-3.08
				c-0.05-0.1-0.15-0.15-0.25-0.15c-0.89,0.47-2.06,0.84-2.68,1.04c-0.12,0.08-0.12,0.42,0,0.5l0.25,0.15
				c0.75,0.45,0.77,0.6,0.77,2.06v11.22c0,1.79-0.4,2.05-0.94,2.16c-0.15,0.03-0.32,0.05-0.48,0.06c-0.47,0.03-0.83,0-1.2-0.06
				c-1.48-0.22-1.63-1.07-1.62-2.29l0.15-4.32c0.07-1.86-0.8-2.91-2.58-2.91c-1.81,0-4.62,1.76-4.62,3.06
				c0,0.22,0.12,0.35,0.35,0.35c0.37,0,1.04-0.17,1.42-0.47c0.2-0.15,0.22-0.45,0.25-0.84c0.05-0.77,0.89-1.12,1.59-1.12
				c1.54,0,1.84,1.24,1.81,2.16l-0.02,0.92c-0.02,0.37-0.17,0.59-0.43,0.68c-0.2,0.07-1.43,0.39-2.93,1.04
				c-1.53,0.67-2.08,1.43-2.08,2.39c0,0.69,0.3,1.32,0.77,1.74c0.42,0.37,1.02,0.57,1.74,0.57c0.69,0,1.24-0.32,1.79-0.62
				c0.5-0.27,0.79-0.5,0.97-0.5c0.15,0,0.28,0.19,0.46,0.34c0.5,0.45,1.02,0.5,1.55,0.5c1.08,0,2.16,0,2.58,0l0,0l2.41-0.04
				c0.87,0,2.41,0.07,2.41,0.07C223.75,34.38,223.8,33.93,223.63,33.81z M214.22,31.8c0,0.52-0.03,0.87-0.32,1.17
				c-0.25,0.25-1.02,0.62-1.52,0.62c-1.27,0-1.58-1.07-1.56-1.49c0.04-1.28,0.71-1.51,2.16-2.06c0.5-0.19,0.9-0.26,1.05-0.26
				c0.15,0,0.24,0.18,0.24,0.45L214.22,31.8z"/>
			<g>
				<path class="st3" d="M159.91,24.14c0-1.55-0.05-4.43-0.47-5.18c-0.18-0.3-0.63-0.48-1.25-0.53l-0.63-0.05
					c-0.15-0.17-0.1-0.5,0.05-0.6c0.95,0.05,1.88,0.07,2.86,0.07c1.05,0,1.73-0.03,2.63-0.07c0.2,0.12,0.18,0.45,0.05,0.6l-0.6,0.05
					c-0.63,0.05-1.1,0.27-1.25,0.6c-0.35,0.83-0.35,3.71-0.35,5.11v2.83c0,2.18-0.35,4.48-1.75,5.99c-1.08,1.18-2.93,1.83-4.78,1.83
					c-1.73,0-3.46-0.33-4.68-1.38c-1.33-1.1-1.95-2.93-1.95-5.91v-5.91c0-2.6-0.05-3.03-1.5-3.16l-0.63-0.05
					c-0.15-0.1-0.1-0.53,0.05-0.6c1.25,0.05,2.1,0.07,3.11,0.07c1.03,0,1.85-0.03,3.08-0.07c0.15,0.07,0.2,0.5,0.05,0.6l-0.6,0.05
					c-1.45,0.13-1.5,0.55-1.5,3.16v5.41c0,4.03,1.25,6.69,5.09,6.69c3.63,0,5.01-2.85,5.01-6.66V24.14z"/>
				<path class="st3" d="M172.33,30.63c0,2.63,0.05,3.01,1.5,3.13l0.8,0.07c0.15,0.1,0.1,0.55-0.05,0.63
					c-1.43-0.05-2.28-0.07-3.28-0.07c-1,0-1.88,0.02-3.48,0.07c-0.15-0.07-0.2-0.5,0-0.63l0.9-0.07c1.43-0.13,1.55-0.5,1.55-3.13
					v-11.2c0-0.78,0-0.8-0.75-0.8h-1.38c-1.08,0-2.45,0.05-3.08,0.63c-0.6,0.55-0.85,1.1-1.13,1.73c-0.2,0.15-0.55,0.03-0.65-0.18
					c0.4-1.13,0.78-2.73,0.95-3.73c0.08-0.05,0.4-0.07,0.48,0c0.15,0.8,0.98,0.78,2.13,0.78h10.14c1.35,0,1.58-0.05,1.95-0.7
					c0.13-0.05,0.4-0.03,0.45,0.08c-0.28,1.03-0.45,3.05-0.38,3.81c-0.1,0.2-0.53,0.2-0.65,0.05c-0.08-0.63-0.25-1.55-0.63-1.83
					c-0.58-0.43-1.53-0.63-2.91-0.63h-1.78c-0.75,0-0.73,0.02-0.73,0.85V30.63z"/>
				<path class="st3" d="M185.66,26.29c-1.2,0-1.25,0.05-1.25,0.8v3.53c0,2.63,0.13,2.98,1.53,3.13l0.73,0.07
					c0.15,0.1,0.1,0.55-0.05,0.63c-1.35-0.05-2.2-0.07-3.18-0.07c-1.08,0-1.93,0.05-2.9,0.07c-0.15-0.07-0.2-0.48-0.05-0.63
					l0.43-0.07c1.4-0.25,1.45-0.5,1.45-3.13v-9.02c0-2.63-0.18-3.05-1.48-3.15l-0.65-0.05c-0.15-0.1-0.1-0.55,0.05-0.63
					c1.23,0.02,2.08,0.07,3.16,0.07c0.98,0,1.83-0.03,2.91-0.07c0.15,0.07,0.2,0.53,0.05,0.63l-0.48,0.05
					c-1.45,0.15-1.5,0.53-1.5,3.15v2.88c0,0.78,0.05,0.8,1.25,0.8h7.16c1.2,0,1.25-0.03,1.25-0.8v-2.88c0-2.63-0.05-3-1.53-3.15
					l-0.48-0.05c-0.15-0.1-0.1-0.55,0.05-0.63c1.15,0.05,2,0.07,3.03,0.07c0.98,0,1.83-0.03,2.95-0.07c0.15,0.07,0.2,0.53,0.05,0.63
					l-0.53,0.05c-1.45,0.15-1.5,0.53-1.5,3.15v9.02c0,2.63,0.05,2.95,1.5,3.13l0.6,0.07c0.15,0.1,0.1,0.55-0.05,0.63
					c-1.2-0.05-2.05-0.07-3.03-0.07c-1.03,0-1.93,0.02-3.03,0.07c-0.15-0.07-0.2-0.48-0.05-0.63l0.48-0.07
					c1.53-0.25,1.53-0.5,1.53-3.13v-3.53c0-0.75-0.05-0.8-1.25-0.8H185.66z"/>
				<path class="st3" d="M200.93,27.97c-0.65,0-0.68,0.05-0.68,0.68c0,2.53,1.48,4.68,4.16,4.68c0.82,0,1.53-0.25,2.3-1.23
					c0.25-0.08,0.43,0.08,0.45,0.3c-0.83,1.7-2.63,2.33-3.93,2.33c-1.63,0-2.91-0.7-3.63-1.65c-0.75-0.98-1.05-2.15-1.05-3.25
					c0-3.08,2.03-5.66,5.04-5.66c2.15,0,3.56,1.48,3.56,2.98c0,0.35-0.05,0.55-0.1,0.65c-0.07,0.15-0.43,0.17-1.48,0.17H200.93z
					 M202.48,27.22c1.85,0,2.4-0.1,2.61-0.25c0.07-0.05,0.15-0.15,0.15-0.48c0-0.7-0.47-1.58-1.93-1.58c-1.48,0-2.75,1.35-2.78,2.18
					c0,0.05,0,0.13,0.18,0.13H202.48z"/>
			</g>
			<g>
				<g>
					<path class="st3" d="M150.05,42.92h-1.66v-1.05h4.85v1.05h-1.69v4.36h-1.5V42.92z"/>
					<path class="st3" d="M153.86,47.29v-5.41h1.42v2.06c0.32-0.37,0.7-0.52,1.18-0.52c0.81,0,1.41,0.52,1.41,1.36v2.52h-1.42v-2.21
						c-0.01-0.37-0.1-0.76-0.55-0.76c-0.7,0-0.61,0.77-0.61,0.82v2.16H153.86z"/>
					<path class="st3" d="M160.02,45.69c-0.01,0.49,0.12,0.91,0.65,0.91c0.4,0,0.64-0.19,0.7-0.54h1.32
						c-0.04,0.49-0.35,0.84-0.71,1.05c-0.33,0.21-0.75,0.29-1.19,0.29c-1.51,0-2.11-0.64-2.11-2.12c0-1.19,0.89-1.87,2.02-1.87
						c1.53,0,2.02,0.88,2.02,2.28H160.02z M161.37,44.93c0-0.2-0.06-0.4-0.17-0.56c-0.11-0.16-0.28-0.25-0.49-0.24
						c-0.49,0.02-0.61,0.37-0.65,0.8H161.37z"/>
					<path class="st3" d="M170.98,41.88v3.42c-0.01,1.51-1.22,2.1-2.58,2.1c-1.36,0-2.57-0.59-2.58-2.1v-3.42h1.5v3.35
						c0.02,0.69,0.38,1.12,1.09,1.12s1.06-0.43,1.09-1.12v-3.35H170.98z"/>
					<path class="st3" d="M173.43,43.94c0.32-0.37,0.7-0.52,1.18-0.52c0.81,0,1.41,0.52,1.41,1.36v2.52h-1.42v-2.21
						c-0.01-0.37-0.1-0.76-0.55-0.76c-0.7,0-0.61,0.77-0.61,0.82v2.16H172v-2.79c0-0.34-0.01-0.56-0.04-0.97h1.45L173.43,43.94z"/>
					<path class="st3" d="M177.03,42.88v-1h1.44v1H177.03z M177.04,47.29v-3.76h1.42v3.76H177.04z"/>
					<path class="st3" d="M180.53,47.29l-1.43-3.76h1.51l0.74,2.64h0.01l0.79-2.64h1.33l-1.42,3.76H180.53z"/>
					<path class="st3" d="M185.09,45.69c-0.01,0.49,0.12,0.91,0.65,0.91c0.4,0,0.64-0.19,0.7-0.54h1.32
						c-0.04,0.49-0.35,0.84-0.71,1.05c-0.33,0.21-0.75,0.29-1.19,0.29c-1.51,0-2.11-0.64-2.11-2.12c0-1.19,0.89-1.87,2.02-1.87
						c1.53,0,2.02,0.88,2.02,2.28H185.09z M186.44,44.93c0-0.2-0.06-0.4-0.17-0.56c-0.11-0.16-0.28-0.25-0.49-0.24
						c-0.49,0.02-0.61,0.37-0.65,0.8H186.44z"/>
					<path class="st3" d="M190.03,44.23h0.01c0.16-0.62,0.63-0.83,1.26-0.82v1.21c-0.1-0.01-0.2-0.01-0.3-0.01
						c-0.74,0.01-1,0.45-0.97,1.17v1.51h-1.42v-2.79c0-0.34-0.01-0.56-0.04-0.97h1.45L190.03,44.23z"/>
					<path class="st3" d="M194.02,44.69c0-0.13-0.02-0.24-0.09-0.31c-0.07-0.08-0.19-0.13-0.39-0.13c-0.21,0-0.34,0.12-0.34,0.34
						c0,0.28,0.58,0.26,1.47,0.54c0.45,0.14,0.76,0.42,0.76,1.03c0,1-0.94,1.25-1.8,1.25c-0.92,0-1.82-0.19-1.81-1.33h1.35
						c-0.02,0.11,0.01,0.24,0.1,0.34c0.08,0.1,0.2,0.17,0.34,0.17c0.28,0,0.48-0.1,0.48-0.34c0-0.67-2.23-0.27-2.23-1.63
						c0-0.93,0.99-1.18,1.74-1.18c0.89,0,1.72,0.23,1.78,1.27H194.02z"/>
					<path class="st3" d="M196.28,42.88v-1h1.44v1H196.28z M196.28,47.29v-3.76h1.42v3.76H196.28z"/>
					<path class="st3" d="M199.08,43.52v-0.57l1.42-0.54v1.11h0.82v0.9h-0.82v1.49c0,0.1-0.06,0.58,0.27,0.58
						c0.19,0,0.38,0,0.55-0.02v0.85c-0.32,0.06-0.55,0.07-0.76,0.07c-0.97,0-1.55-0.13-1.48-1.29v-1.69h-0.73v-0.9H199.08z"/>
					<path class="st3" d="M206.2,43.52l-2.05,5.2h-1.31l0.53-1.33l-1.57-3.87h1.52l0.74,2.61h0.01l0.81-2.61H206.2z"/>
					<path class="st3" d="M213.09,45.4c0,1.39-1.01,1.99-2.19,1.99c-1.18,0-2.19-0.61-2.19-1.99c0-1.39,1.01-1.99,2.19-1.99
						C212.08,43.41,213.09,44.02,213.09,45.4z M210.91,46.57c0.6,0,0.73-0.64,0.73-1.17c0-0.53-0.13-1.17-0.73-1.17
						c-0.6,0-0.73,0.64-0.73,1.17C210.18,45.94,210.31,46.57,210.91,46.57z"/>
					<path class="st3" d="M214.27,47.29v-2.86h-0.7v-0.9h0.72c-0.04-1.26,0.28-1.74,1.57-1.74c0.25,0,0.51,0.04,0.76,0.09v0.89
						c-0.13-0.04-0.27-0.08-0.4-0.08c-0.48,0-0.54,0.42-0.52,0.84h0.88v0.9h-0.88v2.86H214.27z"/>
					<path class="st3" d="M220.3,42.92h-1.66v-1.05h4.85v1.05h-1.69v4.36h-1.5V42.92z"/>
					<path class="st3" d="M224.56,45.69c-0.01,0.49,0.12,0.91,0.65,0.91c0.4,0,0.64-0.19,0.7-0.54h1.32
						c-0.04,0.49-0.35,0.84-0.71,1.05c-0.33,0.21-0.75,0.29-1.19,0.29c-1.51,0-2.11-0.64-2.11-2.12c0-1.19,0.89-1.87,2.02-1.87
						c1.53,0,2.02,0.88,2.02,2.28H224.56z M225.91,44.93c0-0.2-0.06-0.4-0.17-0.56c-0.11-0.16-0.28-0.25-0.49-0.24
						c-0.49,0.02-0.61,0.37-0.65,0.8H225.91z"/>
					<path class="st3" d="M229,47.29h-1.45l1.27-1.96l-1.12-1.8h1.64l0.48,1.15l0.5-1.15h1.44l-1.15,1.8l1.27,1.96h-1.66l-0.59-1.39
						L229,47.29z"/>
					<path class="st3" d="M234.8,47.29c-0.03-0.12-0.03-0.24-0.03-0.51h-0.01c-0.17,0.27-0.49,0.62-1.2,0.62
						c-0.89,0-1.36-0.48-1.34-1.25c0.01-0.91,0.85-1.29,2.08-1.29h0.45c0-0.33,0.07-0.81-0.49-0.79c-0.34,0.01-0.46,0.35-0.45,0.58
						h-1.34c-0.01-0.53,0.27-0.84,0.65-1.01c0.39-0.18,0.88-0.22,1.3-0.22c0.76,0,1.69,0.32,1.67,1.17v1.93
						c0,0.16,0.03,0.32,0.08,0.77H234.8z M234.08,46.57c0.61,0,0.67-0.58,0.67-1.08c-0.3,0-0.58-0.01-0.78,0.08
						c-0.21,0.1-0.37,0.24-0.37,0.5C233.59,46.35,233.81,46.57,234.08,46.57z"/>
					<path class="st3" d="M239.09,44.69c0-0.13-0.02-0.24-0.09-0.31c-0.07-0.08-0.19-0.13-0.39-0.13c-0.21,0-0.34,0.12-0.34,0.34
						c0,0.28,0.58,0.26,1.47,0.54c0.45,0.14,0.76,0.42,0.76,1.03c0,1-0.94,1.25-1.8,1.25c-0.92,0-1.82-0.19-1.81-1.33h1.35
						c-0.02,0.11,0.01,0.24,0.1,0.34c0.08,0.1,0.2,0.17,0.34,0.17c0.28,0,0.48-0.1,0.48-0.34c0-0.67-2.23-0.27-2.23-1.63
						c0-0.93,0.99-1.18,1.74-1.18c0.89,0,1.72,0.23,1.78,1.27H239.09z"/>
				</g>
				<g>
					<path class="st3" d="M148.9,54.65v-3.69h1.03v1.46h1.25v-1.46h1.02v3.69h-1.02v-1.51h-1.26v1.51H148.9z"/>
					<path class="st3" d="M153.7,53.56c-0.01,0.33,0.08,0.62,0.44,0.62c0.27,0,0.44-0.13,0.47-0.37h0.9
						c-0.03,0.33-0.24,0.57-0.48,0.71c-0.22,0.14-0.51,0.2-0.81,0.2c-1.03,0-1.43-0.44-1.43-1.44c0-0.81,0.61-1.27,1.38-1.27
						c1.04,0,1.37,0.6,1.37,1.55H153.7z M154.62,53.04c0-0.14-0.04-0.28-0.12-0.38c-0.08-0.11-0.19-0.17-0.34-0.16
						c-0.34,0.02-0.42,0.26-0.44,0.55H154.62z"/>
					<path class="st3" d="M157.7,54.65c-0.02-0.08-0.02-0.16-0.02-0.35h-0.01c-0.12,0.18-0.34,0.42-0.82,0.42
						c-0.61,0-0.92-0.33-0.91-0.85c0.01-0.62,0.58-0.88,1.42-0.88h0.31c0-0.22,0.05-0.55-0.34-0.54c-0.23,0.01-0.31,0.24-0.31,0.39
						h-0.91c-0.01-0.36,0.18-0.57,0.44-0.69c0.27-0.12,0.6-0.15,0.88-0.15c0.52,0,1.15,0.22,1.14,0.8v1.32
						c0,0.11,0.02,0.22,0.06,0.53H157.7z M157.21,54.16c0.42,0,0.45-0.39,0.45-0.74c-0.2,0-0.4-0.01-0.53,0.06
						c-0.14,0.07-0.26,0.16-0.26,0.34C156.88,54.01,157.03,54.16,157.21,54.16z"/>
					<path class="st3" d="M159.28,54.65v-3.69h0.97v3.69H159.28z"/>
					<path class="st3" d="M161.21,52.09V51.7l0.97-0.37v0.76h0.56v0.61h-0.56v1.02c0,0.07-0.04,0.4,0.18,0.4
						c0.13,0,0.26,0,0.37-0.02v0.58c-0.22,0.04-0.38,0.05-0.52,0.05c-0.66,0-1.06-0.09-1.01-0.88V52.7h-0.5v-0.61H161.21z"/>
					<path class="st3" d="M163.3,54.65v-3.69h0.97v1.4c0.22-0.26,0.47-0.36,0.8-0.36c0.55,0,0.96,0.36,0.96,0.92v1.72h-0.97v-1.51
						c-0.01-0.25-0.07-0.52-0.37-0.52c-0.48,0-0.42,0.53-0.42,0.56v1.47H163.3z"/>
					<path class="st3" d="M170.21,52.05c0.01-0.14-0.04-0.25-0.13-0.33c-0.09-0.08-0.22-0.12-0.39-0.12c-0.23,0-0.44,0.15-0.44,0.34
						c0,0.27,0.33,0.36,0.6,0.43c0.62,0.16,1.52,0.22,1.52,1.21c0,0.78-0.77,1.14-1.62,1.14c-0.86,0-1.61-0.25-1.63-1.25h1.02
						c-0.01,0.35,0.25,0.54,0.62,0.54c0.23,0,0.54-0.12,0.54-0.37c0-0.5-0.76-0.39-1.56-0.75c-0.37-0.16-0.56-0.5-0.56-0.9
						c0.04-0.87,0.81-1.11,1.58-1.11c0.76,0,1.54,0.27,1.48,1.16H170.21z"/>
					<path class="st3" d="M173.56,52.99c0-0.13-0.02-0.23-0.08-0.3c-0.06-0.07-0.15-0.11-0.3-0.11c-0.35,0-0.37,0.53-0.37,0.8
						s0.02,0.8,0.37,0.8c0.34-0.03,0.38-0.29,0.38-0.52h0.97c0,0.36-0.16,0.63-0.4,0.81c-0.25,0.17-0.57,0.26-0.91,0.27
						c-0.97,0-1.41-0.47-1.41-1.36c0-0.93,0.64-1.36,1.41-1.36c0.65-0.01,1.26,0.25,1.31,0.98H173.56z"/>
					<path class="st3" d="M175.11,51.65v-0.68h0.98v0.68H175.11z M175.11,54.65v-2.56h0.97v2.56H175.11z"/>
					<path class="st3" d="M177.56,53.56c-0.01,0.33,0.08,0.62,0.44,0.62c0.27,0,0.44-0.13,0.47-0.37h0.9
						c-0.03,0.33-0.24,0.57-0.48,0.71c-0.22,0.14-0.51,0.2-0.81,0.2c-1.03,0-1.43-0.44-1.43-1.44c0-0.81,0.61-1.27,1.38-1.27
						c1.04,0,1.37,0.6,1.37,1.55H177.56z M178.48,53.04c0-0.14-0.04-0.28-0.12-0.38c-0.08-0.11-0.19-0.17-0.34-0.16
						c-0.34,0.02-0.42,0.26-0.44,0.55H178.48z"/>
					<path class="st3" d="M180.93,52.37c0.22-0.26,0.47-0.36,0.8-0.36c0.55,0,0.96,0.36,0.96,0.92v1.72h-0.97v-1.51
						c-0.01-0.25-0.07-0.52-0.37-0.52c-0.48,0-0.42,0.53-0.42,0.56v1.47h-0.97v-1.9c0-0.23-0.01-0.38-0.03-0.66h0.99L180.93,52.37z"
						/>
					<path class="st3" d="M185.01,52.99c0-0.13-0.02-0.23-0.08-0.3c-0.06-0.07-0.15-0.11-0.3-0.11c-0.35,0-0.37,0.53-0.37,0.8
						s0.02,0.8,0.37,0.8c0.34-0.03,0.38-0.29,0.38-0.52h0.97c0,0.36-0.16,0.63-0.4,0.81c-0.25,0.17-0.57,0.26-0.91,0.27
						c-0.97,0-1.41-0.47-1.41-1.36c0-0.93,0.64-1.36,1.41-1.36c0.65-0.01,1.26,0.25,1.31,0.98H185.01z"/>
					<path class="st3" d="M187.31,53.56c-0.01,0.33,0.08,0.62,0.44,0.62c0.27,0,0.44-0.13,0.47-0.37h0.9
						c-0.03,0.33-0.24,0.57-0.48,0.71c-0.22,0.14-0.51,0.2-0.81,0.2c-1.03,0-1.43-0.44-1.43-1.44c0-0.81,0.61-1.27,1.38-1.27
						c1.04,0,1.37,0.6,1.37,1.55H187.31z M188.23,53.04c0-0.14-0.04-0.28-0.12-0.38c-0.08-0.11-0.19-0.17-0.34-0.16
						c-0.34,0.02-0.42,0.26-0.44,0.55H188.23z"/>
					<path class="st3" d="M193.55,52.12c-0.03-0.33-0.28-0.52-0.69-0.52c-0.59,0-0.69,0.69-0.69,1.24c0,0.54,0.12,1.17,0.69,1.17
						c0.43,0,0.67-0.19,0.69-0.54h1.07c0.02,0.93-0.87,1.26-1.77,1.26c-1.15,0-1.77-0.69-1.77-1.92c0-1.24,0.62-1.9,1.77-1.91
						c0.89,0,1.78,0.31,1.77,1.24H193.55z"/>
					<path class="st3" d="M195.97,53.56c-0.01,0.33,0.08,0.62,0.44,0.62c0.27,0,0.44-0.13,0.47-0.37h0.9
						c-0.03,0.33-0.24,0.57-0.48,0.71c-0.22,0.14-0.51,0.2-0.81,0.2c-1.03,0-1.43-0.44-1.43-1.44c0-0.81,0.61-1.27,1.38-1.27
						c1.04,0,1.37,0.6,1.37,1.55H195.97z M196.89,53.04c0-0.14-0.04-0.28-0.12-0.38c-0.08-0.11-0.19-0.17-0.34-0.16
						c-0.34,0.02-0.42,0.26-0.44,0.55H196.89z"/>
					<path class="st3" d="M199.34,52.37c0.22-0.26,0.47-0.36,0.8-0.36c0.55,0,0.96,0.36,0.96,0.92v1.72h-0.97v-1.51
						c-0.01-0.25-0.07-0.52-0.37-0.52c-0.48,0-0.42,0.53-0.42,0.56v1.47h-0.97v-1.9c0-0.23-0.01-0.38-0.03-0.66h0.99L199.34,52.37z"
						/>
					<path class="st3" d="M202.03,52.09V51.7l0.97-0.37v0.76h0.56v0.61H203v1.02c0,0.07-0.04,0.4,0.18,0.4c0.13,0,0.26,0,0.37-0.02
						v0.58c-0.22,0.04-0.38,0.05-0.52,0.05c-0.66,0-1.06-0.09-1.01-0.88V52.7h-0.5v-0.61H202.03z"/>
					<path class="st3" d="M204.84,53.56c-0.01,0.33,0.08,0.62,0.44,0.62c0.27,0,0.44-0.13,0.47-0.37h0.9
						c-0.03,0.33-0.24,0.57-0.48,0.71c-0.22,0.14-0.51,0.2-0.81,0.2c-1.03,0-1.43-0.44-1.43-1.44c0-0.81,0.61-1.27,1.38-1.27
						c1.04,0,1.37,0.6,1.37,1.55H204.84z M205.75,53.04c0-0.14-0.04-0.28-0.12-0.38c-0.08-0.11-0.19-0.17-0.34-0.16
						c-0.34,0.02-0.42,0.26-0.44,0.55H205.75z"/>
					<path class="st3" d="M208.21,52.57h0.01c0.11-0.42,0.43-0.57,0.86-0.56v0.82c-0.07-0.01-0.14-0.01-0.2-0.01
						c-0.51,0.01-0.68,0.31-0.66,0.8v1.03h-0.97v-1.9c0-0.23-0.01-0.38-0.03-0.66h0.99L208.21,52.57z"/>
					<path class="st3" d="M212.51,54.65c-0.02-0.08-0.02-0.16-0.02-0.35h-0.01c-0.12,0.18-0.34,0.42-0.82,0.42
						c-0.61,0-0.92-0.33-0.91-0.85c0.01-0.62,0.58-0.88,1.42-0.88h0.31c0-0.22,0.05-0.55-0.34-0.54c-0.23,0.01-0.31,0.24-0.31,0.39
						h-0.91c-0.01-0.36,0.18-0.57,0.44-0.69c0.27-0.12,0.6-0.15,0.88-0.15c0.52,0,1.15,0.22,1.14,0.8v1.32
						c0,0.11,0.02,0.22,0.06,0.53H212.51z M212.02,54.16c0.42,0,0.45-0.39,0.45-0.74c-0.2,0-0.4-0.01-0.53,0.06
						c-0.14,0.07-0.26,0.16-0.26,0.34C211.69,54.01,211.83,54.16,212.02,54.16z"/>
					<path class="st3" d="M214.31,52.09V51.7l0.97-0.37v0.76h0.56v0.61h-0.56v1.02c0,0.07-0.04,0.4,0.18,0.4
						c0.13,0,0.26,0,0.37-0.02v0.58c-0.22,0.04-0.38,0.05-0.52,0.05c-0.66,0-1.06-0.09-1.01-0.88V52.7h-0.5v-0.61H214.31z"/>
					<path class="st3" d="M217.87,54.65v-3.69h1.03v1.46h1.25v-1.46h1.02v3.69h-1.02v-1.51h-1.26v1.51H217.87z"/>
					<path class="st3" d="M224.75,53.37c0,0.94-0.69,1.36-1.49,1.36c-0.8,0-1.49-0.41-1.49-1.36c0-0.94,0.69-1.36,1.49-1.36
						C224.06,52.01,224.75,52.42,224.75,53.37z M223.26,54.16c0.41,0,0.5-0.43,0.5-0.8c0-0.36-0.09-0.8-0.5-0.8s-0.5,0.43-0.5,0.8
						C222.76,53.73,222.85,54.16,223.26,54.16z"/>
					<path class="st3" d="M227.07,54.37c-0.22,0.26-0.47,0.36-0.8,0.36c-0.55,0-0.96-0.36-0.96-0.92v-1.72h0.97v1.51
						c0.01,0.25,0.07,0.52,0.37,0.52c0.48,0,0.42-0.53,0.42-0.56v-1.47h0.97v1.9c0,0.23,0.01,0.38,0.03,0.66h-0.99L227.07,54.37z"/>
					<path class="st3" d="M230.11,52.88c0-0.09-0.02-0.16-0.06-0.21c-0.05-0.06-0.13-0.09-0.27-0.09c-0.14,0-0.23,0.08-0.23,0.23
						c0,0.19,0.39,0.18,1,0.37c0.31,0.1,0.52,0.29,0.52,0.7c0,0.68-0.64,0.85-1.23,0.85c-0.63,0-1.24-0.13-1.24-0.91h0.92
						c-0.02,0.08,0.01,0.16,0.07,0.23c0.06,0.07,0.14,0.12,0.23,0.12c0.19,0,0.33-0.07,0.33-0.23c0-0.45-1.52-0.18-1.52-1.11
						c0-0.63,0.67-0.81,1.18-0.81c0.61,0,1.17,0.16,1.21,0.87H230.11z"/>
					<path class="st3" d="M231.91,52.09V51.7l0.97-0.37v0.76h0.56v0.61h-0.56v1.02c0,0.07-0.04,0.4,0.18,0.4
						c0.13,0,0.26,0,0.37-0.02v0.58c-0.22,0.04-0.38,0.05-0.52,0.05c-0.66,0-1.06-0.09-1.01-0.88V52.7h-0.5v-0.61H231.91z"/>
					<path class="st3" d="M236.78,53.37c0,0.94-0.69,1.36-1.49,1.36c-0.8,0-1.49-0.41-1.49-1.36c0-0.94,0.69-1.36,1.49-1.36
						C236.09,52.01,236.78,52.42,236.78,53.37z M235.29,54.16c0.41,0,0.5-0.43,0.5-0.8c0-0.36-0.09-0.8-0.5-0.8
						c-0.41,0-0.5,0.43-0.5,0.8C234.79,53.73,234.88,54.16,235.29,54.16z"/>
					<path class="st3" d="M238.31,52.37c0.22-0.26,0.47-0.36,0.8-0.36c0.55,0,0.96,0.36,0.96,0.92v1.72h-0.97v-1.51
						c-0.01-0.25-0.07-0.52-0.37-0.52c-0.48,0-0.42,0.53-0.42,0.56v1.47h-0.97v-1.9c0-0.23-0.01-0.38-0.03-0.66h0.99L238.31,52.37z"
						/>
				</g>
			</g>
			<g>
				<path class="st3" d="M236.87,17.99c0-0.88,0.71-1.59,1.6-1.59c0.88,0,1.59,0.71,1.59,1.59c0,0.89-0.71,1.6-1.59,1.6
					C237.58,19.59,236.87,18.87,236.87,17.99z M239.78,17.99c0-0.72-0.59-1.31-1.31-1.31c-0.73,0-1.32,0.59-1.32,1.31
					c0,0.73,0.59,1.32,1.32,1.32C239.19,19.31,239.78,18.72,239.78,17.99z M238.13,18.09v0.81h-0.29v-1.88h0.61
					c0.34,0,0.7,0.09,0.7,0.52c0,0.22-0.13,0.39-0.38,0.44v0.01c0.26,0.05,0.29,0.17,0.32,0.37c0.03,0.18,0.05,0.37,0.11,0.54h-0.37
					c-0.02-0.11-0.05-0.22-0.06-0.34c-0.02-0.16-0.02-0.31-0.11-0.4c-0.07-0.08-0.17-0.07-0.27-0.08H238.13z M238.44,17.8
					c0.28-0.01,0.34-0.12,0.34-0.27c0-0.14-0.06-0.21-0.3-0.21h-0.35v0.48H238.44z"/>
			</g>
		</g>
	</g>
	<g>
		<path class="st3" d="M8.19,74.38H6.55v-1.55h3.85v4.28c-1.8,0.27-2.14,0.43-4.07,0.43c-2.5-0.08-4.02-1.66-4.02-4.17
			c0-2.51,1.52-4.09,4.02-4.17c1.94-0.06,3.98,0.23,4.02,2.56H8.13c-0.11-0.78-0.72-1.01-1.45-1.01c-1.5,0-2.03,1.32-2.03,2.62
			c0,1.58,0.79,2.62,2.39,2.62c0.41,0,0.82-0.07,1.15-0.13V74.38z"/>
		<path class="st3" d="M14.03,72.85h0.02c0.24-0.92,0.93-1.23,1.86-1.21v1.79c-0.16-0.01-0.3-0.01-0.44-0.01
			c-1.1,0.01-1.48,0.67-1.44,1.73v2.23h-2.11v-4.14c0-0.5-0.01-0.83-0.07-1.43H14L14.03,72.85z"/>
		<path class="st3" d="M20.37,77.38c-0.04-0.18-0.04-0.35-0.04-0.75H20.3c-0.26,0.4-0.73,0.92-1.77,0.92
			c-1.32,0-2.01-0.71-1.99-1.85c0.02-1.35,1.26-1.91,3.08-1.91h0.67c0-0.49,0.11-1.2-0.73-1.16c-0.51,0.02-0.68,0.52-0.67,0.85
			h-1.99c-0.01-0.79,0.4-1.24,0.97-1.5c0.58-0.27,1.3-0.33,1.92-0.33c1.13,0,2.5,0.48,2.47,1.73v2.86c0,0.23,0.04,0.48,0.12,1.14
			H20.37z M19.3,76.32c0.91,0,0.99-0.85,0.99-1.6c-0.44,0-0.87-0.02-1.15,0.12c-0.31,0.16-0.55,0.36-0.55,0.74
			C18.58,75.99,18.9,76.32,19.3,76.32z"/>
		<path class="st3" d="M27.71,76.56h-0.04c-0.29,0.68-1.06,0.99-1.85,0.99c-1.59,0-2.33-1.54-2.33-2.93c0-1.48,0.74-2.97,2.4-2.97
			c0.7,0,1.4,0.24,1.81,0.82h0.02v-3.1h2.11v8.01h-2.05L27.71,76.56z M25.65,74.59c0,0.73,0.17,1.73,1.03,1.73
			c0.87,0,1.03-1,1.03-1.73c0-0.74-0.11-1.73-1.03-1.73C25.76,72.86,25.65,73.85,25.65,74.59z"/>
		<path class="st3" d="M35.06,76.77c-0.48,0.55-1.03,0.78-1.74,0.78c-1.2,0-2.09-0.78-2.09-2.01v-3.73h2.11v3.27
			c0.02,0.54,0.16,1.13,0.81,1.13c1.04,0,0.91-1.14,0.91-1.21v-3.2h2.11v4.14c0,0.5,0.01,0.83,0.07,1.43h-2.14L35.06,76.77z"/>
		<path class="st3" d="M42.15,77.38c-0.04-0.18-0.04-0.35-0.04-0.75h-0.02c-0.26,0.4-0.73,0.92-1.78,0.92
			c-1.32,0-2.01-0.71-1.99-1.85c0.02-1.35,1.26-1.91,3.08-1.91h0.67c0-0.49,0.11-1.2-0.73-1.16c-0.51,0.02-0.68,0.52-0.67,0.85
			h-1.99c-0.01-0.79,0.4-1.24,0.97-1.5c0.58-0.27,1.3-0.33,1.92-0.33c1.13,0,2.5,0.48,2.47,1.73v2.86c0,0.23,0.04,0.48,0.12,1.14
			H42.15z M41.08,76.32c0.91,0,0.99-0.85,0.99-1.6c-0.44,0-0.87-0.02-1.15,0.12c-0.31,0.16-0.55,0.36-0.55,0.74
			C40.36,75.99,40.68,76.32,41.08,76.32z"/>
		<path class="st3" d="M46.04,71.81v-0.84l2.11-0.8v1.64h1.22v1.33h-1.22v2.21c0,0.14-0.09,0.87,0.4,0.87c0.28,0,0.57,0,0.81-0.03
			v1.25c-0.48,0.09-0.82,0.11-1.13,0.11c-1.43,0-2.3-0.2-2.19-1.91v-2.5h-1.09v-1.33H46.04z"/>
		<path class="st3" d="M52.16,75.01c-0.01,0.72,0.18,1.34,0.97,1.34c0.59,0,0.95-0.28,1.03-0.8h1.95c-0.07,0.72-0.52,1.24-1.05,1.55
			c-0.49,0.31-1.11,0.43-1.76,0.43c-2.23,0-3.12-0.95-3.12-3.14c0-1.76,1.32-2.76,3-2.76c2.26,0,2.98,1.3,2.98,3.37H52.16z
			 M54.16,73.88c0-0.3-0.09-0.6-0.26-0.83c-0.17-0.23-0.41-0.38-0.73-0.36c-0.73,0.03-0.91,0.55-0.97,1.19H54.16z"/>
		<path class="st3" d="M65.17,71.72c0.01-0.31-0.09-0.54-0.29-0.71c-0.19-0.17-0.48-0.26-0.85-0.26c-0.51,0-0.95,0.33-0.95,0.73
			c0,0.59,0.71,0.78,1.3,0.93c1.34,0.34,3.29,0.48,3.29,2.64c0,1.69-1.66,2.49-3.52,2.49c-1.86,0-3.51-0.54-3.54-2.72h2.22
			c-0.01,0.75,0.54,1.17,1.34,1.17c0.51,0,1.16-0.27,1.16-0.8c0-1.09-1.64-0.85-3.38-1.62c-0.81-0.35-1.21-1.09-1.21-1.95
			c0.09-1.9,1.75-2.42,3.43-2.42c1.65,0,3.35,0.59,3.22,2.52H65.17z"/>
		<path class="st3" d="M72.47,73.76c0-0.28-0.04-0.5-0.17-0.65c-0.12-0.16-0.33-0.24-0.65-0.24c-0.77,0-0.81,1.15-0.81,1.73
			c0,0.58,0.04,1.73,0.81,1.73c0.73-0.06,0.82-0.62,0.82-1.12h2.11c0,0.79-0.34,1.36-0.87,1.75c-0.53,0.38-1.24,0.57-1.97,0.59
			c-2.11,0-3.06-1.02-3.06-2.95c0-2.02,1.39-2.95,3.06-2.95c1.41-0.02,2.74,0.53,2.84,2.12H72.47z"/>
		<path class="st3" d="M75.78,77.38v-8.01h2.11v3.05c0.48-0.55,1.03-0.78,1.74-0.78c1.2,0,2.09,0.78,2.09,2.01v3.73h-2.11V74.1
			c-0.02-0.54-0.16-1.13-0.81-1.13c-1.04,0-0.91,1.14-0.91,1.21v3.2H75.78z"/>
		<path class="st3" d="M89.46,74.59c0,2.05-1.5,2.95-3.24,2.95c-1.74,0-3.24-0.9-3.24-2.95c0-2.05,1.5-2.95,3.24-2.95
			C87.96,71.64,89.46,72.54,89.46,74.59z M86.22,76.32c0.89,0,1.08-0.94,1.08-1.73c0-0.79-0.19-1.73-1.08-1.73
			c-0.89,0-1.08,0.94-1.08,1.73C85.15,75.38,85.33,76.32,86.22,76.32z"/>
		<path class="st3" d="M96.93,74.59c0,2.05-1.5,2.95-3.24,2.95c-1.74,0-3.24-0.9-3.24-2.95c0-2.05,1.5-2.95,3.24-2.95
			C95.43,71.64,96.93,72.54,96.93,74.59z M93.69,76.32c0.89,0,1.08-0.94,1.08-1.73c0-0.79-0.19-1.73-1.08-1.73s-1.08,0.94-1.08,1.73
			C92.61,75.38,92.8,76.32,93.69,76.32z"/>
		<path class="st3" d="M98.25,77.38v-8.01h2.11v8.01H98.25z"/>
		<path class="st3" d="M111.03,74.59c0,2.05-1.5,2.95-3.24,2.95c-1.74,0-3.24-0.9-3.24-2.95c0-2.05,1.5-2.95,3.24-2.95
			C109.53,71.64,111.03,72.54,111.03,74.59z M107.79,76.32c0.89,0,1.08-0.94,1.08-1.73c0-0.79-0.19-1.73-1.08-1.73
			s-1.08,0.94-1.08,1.73C106.71,75.38,106.9,76.32,107.79,76.32z"/>
		<path class="st3" d="M112.81,77.38v-4.24h-1.04v-1.33h1.07c-0.07-1.86,0.42-2.57,2.32-2.57c0.38,0,0.75,0.06,1.13,0.13v1.32
			c-0.19-0.06-0.4-0.12-0.59-0.12c-0.71,0-0.8,0.62-0.78,1.24h1.3v1.33h-1.3v4.24H112.81z"/>
		<path class="st3" d="M120.24,77.38v-8.01h3.84c1.51,0.01,2.77,0.69,2.77,2.1c0,0.99-0.83,1.59-1.73,1.75v0.02
			c1.06,0.14,1.93,0.82,1.93,1.96c0,2.33-2.97,2.17-3.05,2.17H120.24z M122.46,72.55l1.13-0.01c0.6,0,0.99-0.23,0.99-0.84
			c0-0.45-0.39-0.78-0.91-0.78h-1.21V72.55z M123.75,75.82c0.55,0,0.97-0.33,0.97-0.83c0-0.44-0.31-0.87-0.81-0.9h-1.45v1.73H123.75
			z"/>
		<path class="st3" d="M128.34,70.85v-1.49h2.13v1.49H128.34z M128.35,77.38v-5.57h2.11v5.57H128.35z"/>
		<path class="st3" d="M138.25,74.59c0,2.05-1.5,2.95-3.24,2.95c-1.74,0-3.24-0.9-3.24-2.95c0-2.05,1.5-2.95,3.24-2.95
			C136.76,71.64,138.25,72.54,138.25,74.59z M135.01,76.32c0.89,0,1.08-0.94,1.08-1.73c0-0.79-0.19-1.73-1.08-1.73
			c-0.89,0-1.08,0.94-1.08,1.73C133.94,75.38,134.13,76.32,135.01,76.32z"/>
		<path class="st3" d="M141.49,72.73h0.02c0.39-0.77,1.12-1.05,1.95-1.05c0.68,0,1.44,0.35,1.68,1.03c0.38-0.67,1.14-1.04,1.97-1.06
			c1.2,0,2.09,0.78,2.09,2.01v3.73h-2.11V74.1c-0.02-0.54-0.16-1.13-0.81-1.13c-1.04,0-0.91,1.14-0.91,1.21v3.2h-2.11V74.1
			c-0.02-0.54-0.16-1.13-0.81-1.13c-1.04,0-0.91,1.14-0.91,1.21v3.2h-2.11v-4.14c0-0.5-0.01-0.83-0.07-1.43h2.09L141.49,72.73z"/>
		<path class="st3" d="M152.3,75.01c-0.01,0.72,0.18,1.34,0.96,1.34c0.59,0,0.95-0.28,1.03-0.8h1.95c-0.07,0.72-0.52,1.24-1.05,1.55
			c-0.49,0.31-1.11,0.43-1.76,0.43c-2.23,0-3.12-0.95-3.12-3.14c0-1.76,1.32-2.76,3-2.76c2.26,0,2.98,1.3,2.98,3.37H152.3z
			 M154.3,73.88c0-0.3-0.09-0.6-0.25-0.83c-0.17-0.23-0.41-0.38-0.73-0.36c-0.73,0.03-0.91,0.55-0.97,1.19H154.3z"/>
		<path class="st3" d="M161.46,76.56h-0.04c-0.29,0.68-1.06,0.99-1.85,0.99c-1.59,0-2.33-1.54-2.33-2.93c0-1.48,0.74-2.97,2.4-2.97
			c0.7,0,1.4,0.24,1.81,0.82h0.02v-3.1h2.11v8.01h-2.05L161.46,76.56z M159.4,74.59c0,0.73,0.17,1.73,1.03,1.73
			c0.87,0,1.03-1,1.03-1.73c0-0.74-0.11-1.73-1.03-1.73S159.4,73.85,159.4,74.59z"/>
		<path class="st3" d="M165.04,70.85v-1.49h2.13v1.49H165.04z M165.05,77.38v-5.57h2.11v5.57H165.05z"/>
		<path class="st3" d="M172.27,73.76c0-0.28-0.04-0.5-0.17-0.65c-0.12-0.16-0.33-0.24-0.65-0.24c-0.77,0-0.81,1.15-0.81,1.73
			c0,0.58,0.04,1.73,0.81,1.73c0.73-0.06,0.82-0.62,0.82-1.12h2.11c0,0.79-0.34,1.36-0.87,1.75c-0.53,0.38-1.24,0.57-1.97,0.59
			c-2.11,0-3.06-1.02-3.06-2.95c0-2.02,1.39-2.95,3.06-2.95c1.41-0.02,2.74,0.53,2.84,2.12H172.27z"/>
		<path class="st3" d="M179.04,77.38c-0.04-0.18-0.04-0.35-0.04-0.75h-0.02c-0.26,0.4-0.73,0.92-1.78,0.92
			c-1.32,0-2.01-0.71-1.99-1.85c0.02-1.35,1.26-1.91,3.08-1.91h0.67c0-0.49,0.11-1.2-0.73-1.16c-0.51,0.02-0.68,0.52-0.67,0.85
			h-1.99c-0.01-0.79,0.4-1.24,0.97-1.5c0.58-0.27,1.3-0.33,1.92-0.33c1.13,0,2.5,0.48,2.47,1.73v2.86c0,0.23,0.04,0.48,0.12,1.14
			H179.04z M177.97,76.32c0.91,0,0.99-0.85,0.99-1.6c-0.44,0-0.87-0.02-1.15,0.12c-0.31,0.16-0.55,0.36-0.55,0.74
			C177.25,75.99,177.57,76.32,177.97,76.32z"/>
		<path class="st3" d="M182.5,77.38v-8.01h2.11v8.01H182.5z"/>
		<path class="st3" d="M193.7,71.72c0.01-0.31-0.09-0.54-0.29-0.71c-0.19-0.17-0.48-0.26-0.85-0.26c-0.51,0-0.95,0.33-0.95,0.73
			c0,0.59,0.71,0.78,1.3,0.93c1.34,0.34,3.29,0.48,3.29,2.64c0,1.69-1.66,2.49-3.52,2.49c-1.86,0-3.51-0.54-3.54-2.72h2.22
			c-0.01,0.75,0.54,1.17,1.34,1.17c0.51,0,1.16-0.27,1.16-0.8c0-1.09-1.64-0.85-3.38-1.62c-0.81-0.35-1.21-1.09-1.21-1.95
			c0.09-1.9,1.75-2.42,3.43-2.42c1.65,0,3.35,0.59,3.22,2.52H193.7z"/>
		<path class="st3" d="M201,73.76c0-0.28-0.04-0.5-0.17-0.65c-0.12-0.16-0.33-0.24-0.65-0.24c-0.77,0-0.81,1.15-0.81,1.73
			c0,0.58,0.04,1.73,0.81,1.73c0.73-0.06,0.82-0.62,0.82-1.12h2.11c0,0.79-0.34,1.36-0.87,1.75c-0.53,0.38-1.24,0.57-1.97,0.59
			c-2.11,0-3.06-1.02-3.06-2.95c0-2.02,1.39-2.95,3.06-2.95c1.41-0.02,2.74,0.53,2.84,2.12H201z"/>
		<path class="st3" d="M204.38,70.85v-1.49h2.13v1.49H204.38z M204.39,77.38v-5.57h2.11v5.57H204.39z"/>
		<path class="st3" d="M209.71,75.01c-0.01,0.72,0.18,1.34,0.97,1.34c0.59,0,0.95-0.28,1.03-0.8h1.95
			c-0.07,0.72-0.52,1.24-1.05,1.55c-0.49,0.31-1.11,0.43-1.76,0.43c-2.23,0-3.12-0.95-3.12-3.14c0-1.76,1.32-2.76,3-2.76
			c2.26,0,2.98,1.3,2.98,3.37H209.71z M211.71,73.88c0-0.3-0.09-0.6-0.26-0.83c-0.17-0.23-0.41-0.38-0.73-0.36
			c-0.73,0.03-0.91,0.55-0.96,1.19H211.71z"/>
		<path class="st3" d="M217.03,72.42c0.48-0.55,1.03-0.78,1.74-0.78c1.2,0,2.09,0.78,2.09,2.01v3.73h-2.11V74.1
			c-0.02-0.54-0.16-1.13-0.81-1.13c-1.04,0-0.91,1.14-0.91,1.21v3.2h-2.11v-4.14c0-0.5-0.01-0.83-0.07-1.43H217L217.03,72.42z"/>
		<path class="st3" d="M225.92,73.76c0-0.28-0.04-0.5-0.17-0.65c-0.12-0.16-0.33-0.24-0.65-0.24c-0.77,0-0.81,1.15-0.81,1.73
			c0,0.58,0.04,1.73,0.81,1.73c0.73-0.06,0.82-0.62,0.82-1.12h2.11c0,0.79-0.34,1.36-0.87,1.75c-0.53,0.38-1.24,0.57-1.97,0.59
			c-2.11,0-3.06-1.02-3.06-2.95c0-2.02,1.39-2.95,3.06-2.95c1.41-0.02,2.74,0.53,2.84,2.12H225.92z"/>
		<path class="st3" d="M230.87,75.01c-0.01,0.72,0.18,1.34,0.96,1.34c0.59,0,0.95-0.28,1.03-0.8h1.95
			c-0.07,0.72-0.52,1.24-1.05,1.55c-0.49,0.31-1.11,0.43-1.76,0.43c-2.23,0-3.12-0.95-3.12-3.14c0-1.76,1.32-2.76,3-2.76
			c2.26,0,2.98,1.3,2.98,3.37H230.87z M232.87,73.88c0-0.3-0.09-0.6-0.25-0.83c-0.17-0.23-0.41-0.38-0.73-0.36
			c-0.73,0.03-0.91,0.55-0.97,1.19H232.87z"/>
		<path class="st3" d="M239.02,73.53c0-0.19-0.03-0.36-0.13-0.47c-0.11-0.12-0.29-0.2-0.58-0.2c-0.31,0-0.5,0.18-0.5,0.5
			c0,0.41,0.85,0.39,2.17,0.8c0.67,0.21,1.12,0.62,1.12,1.53c0,1.48-1.39,1.85-2.66,1.85c-1.36,0-2.7-0.28-2.68-1.97h2
			c-0.03,0.17,0.02,0.35,0.14,0.5c0.12,0.14,0.3,0.26,0.5,0.26c0.41,0,0.71-0.16,0.71-0.51c0-0.99-3.29-0.4-3.29-2.42
			c0-1.38,1.46-1.75,2.57-1.75c1.32,0,2.54,0.34,2.63,1.89H239.02z"/>
	</g>
</g>
</svg>
