<?xml version="1.0" encoding="utf-8"?>
<!-- Generator: Adobe Illustrator 25.4.1, SVG Export Plug-In . SVG Version: 6.00 Build 0)  -->
<svg version="1.1" id="Layer_1" xmlns="http://www.w3.org/2000/svg" xmlns:xlink="http://www.w3.org/1999/xlink" x="0px" y="0px"
	 viewBox="0 0 98.68 98.68" style="enable-background:new 0 0 98.68 98.68;" xml:space="preserve">
<style type="text/css">
	.st0{fill:#BEBEBE;}
	.st1{fill:none;stroke:#FFFFFF;stroke-width:1.07;stroke-linecap:round;stroke-linejoin:round;stroke-miterlimit:10;}
	.st2{fill:#FC4E07;}
	.st3{fill:#E7B800;}
	.st4{fill:#0099CC;}
	.st5{fill:#FFFFFF;}
	.st6{font-family:'ArialMT';}
	.st7{font-size:5px;}
</style>
<polygon class="st0" points="49.34,49.34 50.45,48.08 51.56,46.81 52.67,45.55 53.78,44.28 54.9,43.02 56.01,41.76 57.12,40.49 
	58.23,39.23 59.34,37.96 60.45,36.7 61.56,35.44 62.67,34.17 63.78,32.91 64.89,31.64 66,30.38 67.11,29.11 68.23,27.85 
	69.34,26.59 70.45,25.32 71.56,24.06 72.67,22.79 73.78,21.53 74.89,20.27 76,19 77.12,17.74 78.23,16.47 79.34,15.21 80.45,13.95 
	81.56,12.68 80.28,11.6 78.97,10.56 77.62,9.56 76.24,8.62 74.82,7.72 73.38,6.87 71.91,6.07 70.41,5.32 68.88,4.62 67.34,3.98 
	65.77,3.39 64.18,2.85 62.58,2.37 60.96,1.94 59.32,1.57 57.68,1.25 56.02,1 54.36,0.79 52.69,0.65 51.02,0.56 49.34,0.54 
	49.34,2.22 49.34,3.9 49.34,5.59 49.34,7.27 49.34,8.95 49.34,10.63 49.34,12.32 49.34,14 49.34,15.68 49.34,17.37 49.34,19.05 
	49.34,20.73 49.34,22.41 49.34,24.1 49.34,25.78 49.34,27.46 49.34,29.15 49.34,30.83 49.34,32.51 49.34,34.19 49.34,35.88 
	49.34,37.56 49.34,39.24 49.34,40.93 49.34,42.61 49.34,44.29 49.34,45.97 49.34,47.66 "/>
<polygon class="st1" points="49.34,49.34 50.45,48.08 51.56,46.81 52.67,45.55 53.78,44.28 54.9,43.02 56.01,41.76 57.12,40.49 
	58.23,39.23 59.34,37.96 60.45,36.7 61.56,35.44 62.67,34.17 63.78,32.91 64.89,31.64 66,30.38 67.11,29.11 68.23,27.85 
	69.34,26.59 70.45,25.32 71.56,24.06 72.67,22.79 73.78,21.53 74.89,20.27 76,19 77.12,17.74 78.23,16.47 79.34,15.21 80.45,13.95 
	81.56,12.68 80.28,11.6 78.97,10.56 77.62,9.56 76.24,8.62 74.82,7.72 73.38,6.87 71.91,6.07 70.41,5.32 68.88,4.62 67.34,3.98 
	65.77,3.39 64.18,2.85 62.58,2.37 60.96,1.94 59.32,1.57 57.68,1.25 56.02,1 54.36,0.79 52.69,0.65 51.02,0.56 49.34,0.54 
	49.34,2.22 49.34,3.9 49.34,5.59 49.34,7.27 49.34,8.95 49.34,10.63 49.34,12.32 49.34,14 49.34,15.68 49.34,17.37 49.34,19.05 
	49.34,20.73 49.34,22.41 49.34,24.1 49.34,25.78 49.34,27.46 49.34,29.15 49.34,30.83 49.34,32.51 49.34,34.19 49.34,35.88 
	49.34,37.56 49.34,39.24 49.34,40.93 49.34,42.61 49.34,44.29 49.34,45.97 49.34,47.66 "/>
<polygon class="st2" points="49.34,49.34 47.94,50.28 46.55,51.22 45.15,52.16 43.75,53.1 42.36,54.04 40.96,54.98 39.57,55.92 
	38.17,56.86 36.77,57.8 35.38,58.74 33.98,59.68 32.58,60.61 31.19,61.55 29.79,62.49 28.39,63.43 27,64.37 25.6,65.31 24.21,66.25 
	22.81,67.19 21.41,68.13 20.02,69.07 18.62,70.01 17.22,70.95 15.83,71.89 14.43,72.83 13.04,73.77 11.64,74.71 10.24,75.65 
	8.85,76.59 9.8,77.95 10.79,79.27 11.83,80.57 12.91,81.82 14.04,83.04 15.2,84.22 16.41,85.36 17.65,86.46 18.93,87.52 
	20.25,88.53 21.6,89.49 22.98,90.41 24.39,91.28 25.83,92.11 27.29,92.89 28.79,93.61 30.3,94.28 31.84,94.9 33.4,95.47 
	34.98,95.99 36.57,96.45 38.18,96.85 39.8,97.21 41.43,97.5 43.07,97.74 44.72,97.93 46.37,98.06 48.03,98.13 49.69,98.14 
	51.35,98.1 53.01,98.01 54.66,97.85 56.3,97.65 57.94,97.38 59.57,97.06 61.18,96.69 62.79,96.26 64.37,95.77 65.94,95.24 
	67.49,94.64 69.02,94 70.53,93.31 72.01,92.56 73.47,91.77 74.89,90.92 76.29,90.03 77.66,89.09 78.99,88.1 80.29,87.07 81.56,86 
	82.79,84.88 83.97,83.73 85.12,82.53 86.23,81.3 87.3,80.02 88.31,78.72 89.29,77.37 90.22,76 91.1,74.6 91.94,73.16 92.72,71.7 
	93.46,70.21 94.14,68.7 94.77,67.17 95.35,65.61 95.88,64.04 96.35,62.45 96.77,60.85 97.13,59.23 97.44,57.6 97.69,55.96 
	97.89,54.31 98.03,52.66 98.11,51 98.14,49.34 98.11,47.68 98.03,46.03 97.89,44.37 97.69,42.73 97.44,41.09 97.13,39.46 
	96.77,37.84 96.35,36.23 95.88,34.64 95.35,33.07 94.77,31.52 94.14,29.98 93.46,28.47 92.72,26.98 91.94,25.52 91.1,24.09 
	90.22,22.68 89.29,21.31 88.31,19.97 87.3,18.66 86.23,17.39 85.12,16.15 83.97,14.95 82.79,13.8 81.56,12.68 80.45,13.95 
	79.34,15.21 78.23,16.47 77.12,17.74 76,19 74.89,20.27 73.78,21.53 72.67,22.79 71.56,24.06 70.45,25.32 69.34,26.59 68.23,27.85 
	67.11,29.11 66,30.38 64.89,31.64 63.78,32.91 62.67,34.17 61.56,35.44 60.45,36.7 59.34,37.96 58.23,39.23 57.12,40.49 
	56.01,41.76 54.9,43.02 53.78,44.28 52.67,45.55 51.56,46.81 50.45,48.08 "/>
<polygon class="st1" points="49.34,49.34 47.94,50.28 46.55,51.22 45.15,52.16 43.75,53.1 42.36,54.04 40.96,54.98 39.57,55.92 
	38.17,56.86 36.77,57.8 35.38,58.74 33.98,59.68 32.58,60.61 31.19,61.55 29.79,62.49 28.39,63.43 27,64.37 25.6,65.31 24.21,66.25 
	22.81,67.19 21.41,68.13 20.02,69.07 18.62,70.01 17.22,70.95 15.83,71.89 14.43,72.83 13.04,73.77 11.64,74.71 10.24,75.65 
	8.85,76.59 9.8,77.95 10.79,79.27 11.83,80.57 12.91,81.82 14.04,83.04 15.2,84.22 16.41,85.36 17.65,86.46 18.93,87.52 
	20.25,88.53 21.6,89.49 22.98,90.41 24.39,91.28 25.83,92.11 27.29,92.89 28.79,93.61 30.3,94.28 31.84,94.9 33.4,95.47 
	34.98,95.99 36.57,96.45 38.18,96.85 39.8,97.21 41.43,97.5 43.07,97.74 44.72,97.93 46.37,98.06 48.03,98.13 49.69,98.14 
	51.35,98.1 53.01,98.01 54.66,97.85 56.3,97.65 57.94,97.38 59.57,97.06 61.18,96.69 62.79,96.26 64.37,95.77 65.94,95.24 
	67.49,94.64 69.02,94 70.53,93.31 72.01,92.56 73.47,91.77 74.89,90.92 76.29,90.03 77.66,89.09 78.99,88.1 80.29,87.07 81.56,86 
	82.79,84.88 83.97,83.73 85.12,82.53 86.23,81.3 87.3,80.02 88.31,78.72 89.29,77.37 90.22,76 91.1,74.6 91.94,73.16 92.72,71.7 
	93.46,70.21 94.14,68.7 94.77,67.17 95.35,65.61 95.88,64.04 96.35,62.45 96.77,60.85 97.13,59.23 97.44,57.6 97.69,55.96 
	97.89,54.31 98.03,52.66 98.11,51 98.14,49.34 98.11,47.68 98.03,46.03 97.89,44.37 97.69,42.73 97.44,41.09 97.13,39.46 
	96.77,37.84 96.35,36.23 95.88,34.64 95.35,33.07 94.77,31.52 94.14,29.98 93.46,28.47 92.72,26.98 91.94,25.52 91.1,24.09 
	90.22,22.68 89.29,21.31 88.31,19.97 87.3,18.66 86.23,17.39 85.12,16.15 83.97,14.95 82.79,13.8 81.56,12.68 80.45,13.95 
	79.34,15.21 78.23,16.47 77.12,17.74 76,19 74.89,20.27 73.78,21.53 72.67,22.79 71.56,24.06 70.45,25.32 69.34,26.59 68.23,27.85 
	67.11,29.11 66,30.38 64.89,31.64 63.78,32.91 62.67,34.17 61.56,35.44 60.45,36.7 59.34,37.96 58.23,39.23 57.12,40.49 
	56.01,41.76 54.9,43.02 53.78,44.28 52.67,45.55 51.56,46.81 50.45,48.08 "/>
<polygon class="st3" points="49.34,49.34 47.72,49.81 46.11,50.28 44.49,50.75 42.87,51.22 41.26,51.69 39.64,52.16 38.03,52.63 
	36.41,53.1 34.79,53.57 33.18,54.04 31.57,54.52 29.95,54.99 28.33,55.46 26.72,55.93 25.1,56.4 23.49,56.87 21.87,57.34 
	20.25,57.81 18.64,58.28 17.02,58.75 15.41,59.22 13.79,59.69 12.18,60.16 10.56,60.63 8.94,61.1 7.33,61.57 5.71,62.04 4.1,62.51 
	2.48,62.98 2.98,64.58 3.52,66.17 4.13,67.73 4.79,69.27 5.5,70.79 6.26,72.28 7.07,73.74 7.94,75.18 8.85,76.59 10.24,75.65 
	11.64,74.71 13.04,73.77 14.43,72.83 15.83,71.89 17.22,70.95 18.62,70.01 20.02,69.07 21.41,68.13 22.81,67.19 24.21,66.25 
	25.6,65.31 27,64.37 28.39,63.43 29.79,62.49 31.19,61.55 32.58,60.61 33.98,59.68 35.38,58.74 36.77,57.8 38.17,56.86 39.57,55.92 
	40.96,54.98 42.36,54.04 43.75,53.1 45.15,52.16 46.55,51.22 47.94,50.28 "/>
<polygon class="st1" points="49.34,49.34 47.72,49.81 46.11,50.28 44.49,50.75 42.87,51.22 41.26,51.69 39.64,52.16 38.03,52.63 
	36.41,53.1 34.79,53.57 33.18,54.04 31.57,54.52 29.95,54.99 28.33,55.46 26.72,55.93 25.1,56.4 23.49,56.87 21.87,57.34 
	20.25,57.81 18.64,58.28 17.02,58.75 15.41,59.22 13.79,59.69 12.18,60.16 10.56,60.63 8.94,61.1 7.33,61.57 5.71,62.04 4.1,62.51 
	2.48,62.98 2.98,64.58 3.52,66.17 4.13,67.73 4.79,69.27 5.5,70.79 6.26,72.28 7.07,73.74 7.94,75.18 8.85,76.59 10.24,75.65 
	11.64,74.71 13.04,73.77 14.43,72.83 15.83,71.89 17.22,70.95 18.62,70.01 20.02,69.07 21.41,68.13 22.81,67.19 24.21,66.25 
	25.6,65.31 27,64.37 28.39,63.43 29.79,62.49 31.19,61.55 32.58,60.61 33.98,59.68 35.38,58.74 36.77,57.8 38.17,56.86 39.57,55.92 
	40.96,54.98 42.36,54.04 43.75,53.1 45.15,52.16 46.55,51.22 47.94,50.28 "/>
<polygon class="st4" points="49.34,49.34 49.34,47.66 49.34,45.97 49.34,44.29 49.34,42.61 49.34,40.93 49.34,39.24 49.34,37.56 
	49.34,35.88 49.34,34.19 49.34,32.51 49.34,30.83 49.34,29.15 49.34,27.46 49.34,25.78 49.34,24.1 49.34,22.41 49.34,20.73 
	49.34,19.05 49.34,17.37 49.34,15.68 49.34,14 49.34,12.32 49.34,10.63 49.34,8.95 49.34,7.27 49.34,5.59 49.34,3.9 49.34,2.22 
	49.34,0.54 47.66,0.56 45.99,0.65 44.32,0.79 42.66,1 41,1.25 39.36,1.57 37.72,1.94 36.1,2.37 34.5,2.85 32.91,3.39 31.34,3.98 
	29.8,4.62 28.27,5.32 26.77,6.07 25.3,6.87 23.86,7.72 22.44,8.62 21.06,9.56 19.71,10.56 18.4,11.6 17.12,12.68 15.88,13.81 
	14.68,14.98 13.52,16.19 12.41,17.44 11.33,18.73 10.3,20.05 9.32,21.4 8.38,22.79 7.5,24.22 6.66,25.67 5.87,27.15 5.14,28.65 
	4.45,30.18 3.82,31.73 3.24,33.31 2.72,34.9 2.25,36.51 1.84,38.13 1.48,39.77 1.18,41.42 0.94,43.08 0.75,44.74 0.62,46.41 
	0.55,48.08 0.54,49.76 0.58,51.43 0.68,53.11 0.84,54.78 1.05,56.44 1.32,58.09 1.65,59.74 2.04,61.36 2.48,62.98 4.1,62.51 
	5.71,62.04 7.33,61.57 8.94,61.1 10.56,60.63 12.18,60.16 13.79,59.69 15.41,59.22 17.02,58.75 18.64,58.28 20.25,57.81 
	21.87,57.34 23.49,56.87 25.1,56.4 26.72,55.93 28.33,55.46 29.95,54.99 31.57,54.52 33.18,54.04 34.79,53.57 36.41,53.1 
	38.03,52.63 39.64,52.16 41.26,51.69 42.87,51.22 44.49,50.75 46.11,50.28 47.72,49.81 "/>
<polygon class="st1" points="49.34,49.34 49.34,47.66 49.34,45.97 49.34,44.29 49.34,42.61 49.34,40.93 49.34,39.24 49.34,37.56 
	49.34,35.88 49.34,34.19 49.34,32.51 49.34,30.83 49.34,29.15 49.34,27.46 49.34,25.78 49.34,24.1 49.34,22.41 49.34,20.73 
	49.34,19.05 49.34,17.37 49.34,15.68 49.34,14 49.34,12.32 49.34,10.63 49.34,8.95 49.34,7.27 49.34,5.59 49.34,3.9 49.34,2.22 
	49.34,0.54 47.66,0.56 45.99,0.65 44.32,0.79 42.66,1 41,1.25 39.36,1.57 37.72,1.94 36.1,2.37 34.5,2.85 32.91,3.39 31.34,3.98 
	29.8,4.62 28.27,5.32 26.77,6.07 25.3,6.87 23.86,7.72 22.44,8.62 21.06,9.56 19.71,10.56 18.4,11.6 17.12,12.68 15.88,13.81 
	14.68,14.98 13.52,16.19 12.41,17.44 11.33,18.73 10.3,20.05 9.32,21.4 8.38,22.79 7.5,24.22 6.66,25.67 5.87,27.15 5.14,28.65 
	4.45,30.18 3.82,31.73 3.24,33.31 2.72,34.9 2.25,36.51 1.84,38.13 1.48,39.77 1.18,41.42 0.94,43.08 0.75,44.74 0.62,46.41 
	0.55,48.08 0.54,49.76 0.58,51.43 0.68,53.11 0.84,54.78 1.05,56.44 1.32,58.09 1.65,59.74 2.04,61.36 2.48,62.98 4.1,62.51 
	5.71,62.04 7.33,61.57 8.94,61.1 10.56,60.63 12.18,60.16 13.79,59.69 15.41,59.22 17.02,58.75 18.64,58.28 20.25,57.81 
	21.87,57.34 23.49,56.87 25.1,56.4 26.72,55.93 28.33,55.46 29.95,54.99 31.57,54.52 33.18,54.04 34.79,53.57 36.41,53.1 
	38.03,52.63 39.64,52.16 41.26,51.69 42.87,51.22 44.49,50.75 46.11,50.28 47.72,49.81 "/>
<text transform="matrix(1 0 0 1 51.0283 18.9779)" class="st5 st6 st7">n=7 (11%)</text>
<text transform="matrix(1 0 0 1 56.024 68.9506)" class="st5 st6 st7">n=33 (54%)</text>
<text transform="matrix(0.9201 -0.3918 0.3918 0.9201 9.6642 69.6807)" class="st5 st6 st7">n=3 (5%)</text>
<text transform="matrix(1 0 0 1 16.3639 35.977)" class="st5 st6 st7"> n=18 (30%)</text>
</svg>
