<?xml version="1.0" encoding="utf-8"?>
<!-- Generator: Adobe Illustrator 26.3.1, SVG Export Plug-In . SVG Version: 6.00 Build 0)  -->
<svg version="1.1" id="Layer_1" xmlns="http://www.w3.org/2000/svg" xmlns:xlink="http://www.w3.org/1999/xlink" x="0px" y="0px"
	 viewBox="0 0 98.68 98.68" style="enable-background:new 0 0 98.68 98.68;" xml:space="preserve">
<style type="text/css">
	.st0{fill:#FC4E07;}
	.st1{fill:none;stroke:#FFFFFF;stroke-width:1.07;stroke-linecap:round;stroke-linejoin:round;stroke-miterlimit:10;}
	.st2{fill:#E7B800;}
	.st3{fill:#0099CD;}
	.st4{fill:#FFFFFF;}
	.st5{font-family:'ArialMT';}
	.st6{font-size:4px;}
</style>
<polygon class="st0" points="49.34,49.34 50.57,48.2 51.81,47.06 53.04,45.91 54.28,44.77 55.51,43.63 56.75,42.48 57.98,41.34 
	59.22,40.2 60.45,39.05 61.69,37.91 62.92,36.77 64.16,35.62 65.39,34.48 66.63,33.34 67.86,32.2 69.1,31.05 70.33,29.91 
	71.57,28.77 72.8,27.63 74.04,26.48 75.27,25.34 76.51,24.2 77.74,23.05 78.98,21.91 80.21,20.77 81.45,19.62 82.68,18.48 
	83.92,17.34 85.15,16.19 83.99,14.98 82.79,13.81 81.55,12.69 80.27,11.6 78.96,10.56 77.61,9.57 76.23,8.62 74.82,7.72 73.37,6.87 
	71.9,6.07 70.41,5.32 68.88,4.62 67.33,3.98 65.76,3.39 64.18,2.85 62.57,2.37 60.95,1.94 59.32,1.57 57.67,1.26 56.02,1 54.36,0.8 
	52.69,0.66 51.01,0.57 49.34,0.54 49.34,2.22 49.34,3.91 49.34,5.59 49.34,7.27 49.34,8.96 49.34,10.64 49.34,12.32 49.34,14 
	49.34,15.69 49.34,17.37 49.34,19.05 49.34,20.73 49.34,22.42 49.34,24.1 49.34,25.78 49.34,27.47 49.34,29.15 49.34,30.83 
	49.34,32.52 49.34,34.2 49.34,35.88 49.34,37.56 49.34,39.25 49.34,40.93 49.34,42.61 49.34,44.29 49.34,45.98 49.34,47.66 "/>
<polygon class="st1" points="49.34,49.34 50.57,48.2 51.81,47.06 53.04,45.91 54.28,44.77 55.51,43.63 56.75,42.48 57.98,41.34 
	59.22,40.2 60.45,39.05 61.69,37.91 62.92,36.77 64.16,35.62 65.39,34.48 66.63,33.34 67.86,32.2 69.1,31.05 70.33,29.91 
	71.57,28.77 72.8,27.63 74.04,26.48 75.27,25.34 76.51,24.2 77.74,23.05 78.98,21.91 80.21,20.77 81.45,19.62 82.68,18.48 
	83.92,17.34 85.15,16.19 83.99,14.98 82.79,13.81 81.55,12.69 80.27,11.6 78.96,10.56 77.61,9.57 76.23,8.62 74.82,7.72 73.37,6.87 
	71.9,6.07 70.41,5.32 68.88,4.62 67.33,3.98 65.76,3.39 64.18,2.85 62.57,2.37 60.95,1.94 59.32,1.57 57.67,1.26 56.02,1 54.36,0.8 
	52.69,0.66 51.01,0.57 49.34,0.54 49.34,2.22 49.34,3.91 49.34,5.59 49.34,7.27 49.34,8.96 49.34,10.64 49.34,12.32 49.34,14 
	49.34,15.69 49.34,17.37 49.34,19.05 49.34,20.73 49.34,22.42 49.34,24.1 49.34,25.78 49.34,27.47 49.34,29.15 49.34,30.83 
	49.34,32.52 49.34,34.2 49.34,35.88 49.34,37.56 49.34,39.25 49.34,40.93 49.34,42.61 49.34,44.29 49.34,45.98 49.34,47.66 "/>
<polygon class="st2" points="49.34,49.34 48.16,50.55 46.99,51.75 45.81,52.96 44.64,54.16 43.47,55.37 42.29,56.57 41.12,57.78 
	39.94,58.98 38.77,60.19 37.59,61.39 36.42,62.6 35.24,63.8 34.07,65.01 32.89,66.21 31.72,67.42 30.55,68.62 29.37,69.83 
	28.2,71.03 27.02,72.24 25.85,73.45 24.67,74.65 23.5,75.85 22.32,77.06 21.15,78.26 19.98,79.47 18.8,80.67 17.63,81.88 
	16.45,83.09 15.28,84.29 16.48,85.42 17.73,86.52 19.01,87.57 20.32,88.58 21.67,89.54 23.05,90.46 24.47,91.33 25.91,92.15 
	27.37,92.92 28.86,93.64 30.38,94.31 31.92,94.93 33.48,95.49 35.05,96 36.64,96.46 38.25,96.87 39.87,97.22 41.5,97.51 
	43.14,97.75 44.79,97.93 46.44,98.06 48.1,98.12 49.75,98.14 51.41,98.1 53.06,98 54.71,97.84 56.36,97.63 57.99,97.37 59.62,97.05 
	61.23,96.67 62.83,96.24 64.41,95.76 65.98,95.21 67.53,94.62 69.06,93.98 70.56,93.29 72.04,92.54 73.49,91.74 74.92,90.9 
	76.31,90.01 77.68,89.07 79.01,88.08 80.31,87.05 81.57,85.98 82.8,84.86 83.98,83.71 85.13,82.51 86.24,81.28 87.3,80 88.32,78.7 
	89.3,77.36 90.22,75.99 91.1,74.58 91.94,73.15 92.72,71.69 93.45,70.2 94.14,68.7 94.77,67.16 95.34,65.61 95.87,64.04 
	96.34,62.45 96.76,60.85 97.13,59.23 97.43,57.6 97.69,55.96 97.88,54.32 98.03,52.67 98.11,51.01 98.14,49.36 98.11,47.7 
	98.03,46.04 97.89,44.39 97.69,42.75 97.44,41.11 97.13,39.48 96.77,37.86 96.35,36.26 95.88,34.67 95.36,33.1 94.78,31.55 
	94.15,30.02 93.46,28.5 92.73,27.02 91.95,25.56 91.12,24.13 90.24,22.72 89.31,21.35 88.34,20.01 87.32,18.7 86.26,17.43 
	85.15,16.19 83.92,17.34 82.68,18.48 81.45,19.62 80.21,20.77 78.98,21.91 77.74,23.05 76.51,24.2 75.27,25.34 74.04,26.48 
	72.8,27.63 71.57,28.77 70.33,29.91 69.1,31.05 67.86,32.2 66.63,33.34 65.39,34.48 64.16,35.62 62.92,36.77 61.69,37.91 
	60.45,39.05 59.22,40.2 57.98,41.34 56.75,42.48 55.51,43.63 54.28,44.77 53.04,45.91 51.81,47.06 50.57,48.2 "/>
<polygon class="st1" points="49.34,49.34 48.16,50.55 46.99,51.75 45.81,52.96 44.64,54.16 43.47,55.37 42.29,56.57 41.12,57.78 
	39.94,58.98 38.77,60.19 37.59,61.39 36.42,62.6 35.24,63.8 34.07,65.01 32.89,66.21 31.72,67.42 30.55,68.62 29.37,69.83 
	28.2,71.03 27.02,72.24 25.85,73.45 24.67,74.65 23.5,75.85 22.32,77.06 21.15,78.26 19.98,79.47 18.8,80.67 17.63,81.88 
	16.45,83.09 15.28,84.29 16.48,85.42 17.73,86.52 19.01,87.57 20.32,88.58 21.67,89.54 23.05,90.46 24.47,91.33 25.91,92.15 
	27.37,92.92 28.86,93.64 30.38,94.31 31.92,94.93 33.48,95.49 35.05,96 36.64,96.46 38.25,96.87 39.87,97.22 41.5,97.51 
	43.14,97.75 44.79,97.93 46.44,98.06 48.1,98.12 49.75,98.14 51.41,98.1 53.06,98 54.71,97.84 56.36,97.63 57.99,97.37 59.62,97.05 
	61.23,96.67 62.83,96.24 64.41,95.76 65.98,95.21 67.53,94.62 69.06,93.98 70.56,93.29 72.04,92.54 73.49,91.74 74.92,90.9 
	76.31,90.01 77.68,89.07 79.01,88.08 80.31,87.05 81.57,85.98 82.8,84.86 83.98,83.71 85.13,82.51 86.24,81.28 87.3,80 88.32,78.7 
	89.3,77.36 90.22,75.99 91.1,74.58 91.94,73.15 92.72,71.69 93.45,70.2 94.14,68.7 94.77,67.16 95.34,65.61 95.87,64.04 
	96.34,62.45 96.76,60.85 97.13,59.23 97.43,57.6 97.69,55.96 97.88,54.32 98.03,52.67 98.11,51.01 98.14,49.36 98.11,47.7 
	98.03,46.04 97.89,44.39 97.69,42.75 97.44,41.11 97.13,39.48 96.77,37.86 96.35,36.26 95.88,34.67 95.36,33.1 94.78,31.55 
	94.15,30.02 93.46,28.5 92.73,27.02 91.95,25.56 91.12,24.13 90.24,22.72 89.31,21.35 88.34,20.01 87.32,18.7 86.26,17.43 
	85.15,16.19 83.92,17.34 82.68,18.48 81.45,19.62 80.21,20.77 78.98,21.91 77.74,23.05 76.51,24.2 75.27,25.34 74.04,26.48 
	72.8,27.63 71.57,28.77 70.33,29.91 69.1,31.05 67.86,32.2 66.63,33.34 65.39,34.48 64.16,35.62 62.92,36.77 61.69,37.91 
	60.45,39.05 59.22,40.2 57.98,41.34 56.75,42.48 55.51,43.63 54.28,44.77 53.04,45.91 51.81,47.06 50.57,48.2 "/>
<polygon class="st3" points="49.34,49.34 49.34,47.66 49.34,45.98 49.34,44.29 49.34,42.61 49.34,40.93 49.34,39.25 49.34,37.56 
	49.34,35.88 49.34,34.2 49.34,32.52 49.34,30.83 49.34,29.15 49.34,27.47 49.34,25.78 49.34,24.1 49.34,22.42 49.34,20.73 
	49.34,19.05 49.34,17.37 49.34,15.69 49.34,14 49.34,12.32 49.34,10.64 49.34,8.96 49.34,7.27 49.34,5.59 49.34,3.91 49.34,2.22 
	49.34,0.54 47.69,0.57 46.04,0.65 44.39,0.79 42.75,0.99 41.12,1.24 39.5,1.55 37.88,1.91 36.29,2.32 34.7,2.79 33.14,3.31 
	31.59,3.89 30.06,4.51 28.56,5.19 27.07,5.92 25.61,6.7 24.18,7.52 22.79,8.4 21.42,9.32 20.08,10.29 18.77,11.3 17.5,12.36 
	16.27,13.45 15.07,14.6 13.92,15.78 12.8,16.99 11.73,18.25 10.7,19.54 9.71,20.86 8.77,22.22 7.88,23.61 7.03,25.03 6.23,26.47 
	5.48,27.94 4.78,29.44 4.14,30.96 3.54,32.5 2.99,34.06 2.5,35.63 2.07,37.23 1.68,38.83 1.36,40.45 1.08,42.08 0.86,43.72 
	0.7,45.36 0.6,47.01 0.54,48.66 0.55,50.31 0.61,51.96 0.73,53.61 0.9,55.25 1.13,56.89 1.41,58.51 1.75,60.13 2.14,61.74 
	2.59,63.33 3.09,64.9 3.64,66.46 4.24,67.99 4.9,69.51 5.61,71 6.37,72.47 7.17,73.91 8.03,75.32 8.93,76.7 9.88,78.05 10.87,79.37 
	11.91,80.66 12.99,81.91 14.12,83.12 15.28,84.29 16.45,83.09 17.63,81.88 18.8,80.67 19.98,79.47 21.15,78.26 22.32,77.06 
	23.5,75.85 24.67,74.65 25.85,73.45 27.02,72.24 28.2,71.03 29.37,69.83 30.55,68.62 31.72,67.42 32.89,66.21 34.07,65.01 
	35.24,63.8 36.42,62.6 37.59,61.39 38.77,60.19 39.94,58.98 41.12,57.78 42.29,56.57 43.47,55.37 44.64,54.16 45.81,52.96 
	46.99,51.75 48.16,50.55 "/>
<polygon class="st1" points="49.34,49.34 49.34,47.66 49.34,45.98 49.34,44.29 49.34,42.61 49.34,40.93 49.34,39.25 49.34,37.56 
	49.34,35.88 49.34,34.2 49.34,32.52 49.34,30.83 49.34,29.15 49.34,27.47 49.34,25.78 49.34,24.1 49.34,22.42 49.34,20.73 
	49.34,19.05 49.34,17.37 49.34,15.69 49.34,14 49.34,12.32 49.34,10.64 49.34,8.96 49.34,7.27 49.34,5.59 49.34,3.91 49.34,2.22 
	49.34,0.54 47.69,0.57 46.04,0.65 44.39,0.79 42.75,0.99 41.12,1.24 39.5,1.55 37.88,1.91 36.29,2.32 34.7,2.79 33.14,3.31 
	31.59,3.89 30.06,4.51 28.56,5.19 27.07,5.92 25.61,6.7 24.18,7.52 22.79,8.4 21.42,9.32 20.08,10.29 18.77,11.3 17.5,12.36 
	16.27,13.45 15.07,14.6 13.92,15.78 12.8,16.99 11.73,18.25 10.7,19.54 9.71,20.86 8.77,22.22 7.88,23.61 7.03,25.03 6.23,26.47 
	5.48,27.94 4.78,29.44 4.14,30.96 3.54,32.5 2.99,34.06 2.5,35.63 2.07,37.23 1.68,38.83 1.36,40.45 1.08,42.08 0.86,43.72 
	0.7,45.36 0.6,47.01 0.54,48.66 0.55,50.31 0.61,51.96 0.73,53.61 0.9,55.25 1.13,56.89 1.41,58.51 1.75,60.13 2.14,61.74 
	2.59,63.33 3.09,64.9 3.64,66.46 4.24,67.99 4.9,69.51 5.61,71 6.37,72.47 7.17,73.91 8.03,75.32 8.93,76.7 9.88,78.05 10.87,79.37 
	11.91,80.66 12.99,81.91 14.12,83.12 15.28,84.29 16.45,83.09 17.63,81.88 18.8,80.67 19.98,79.47 21.15,78.26 22.32,77.06 
	23.5,75.85 24.67,74.65 25.85,73.45 27.02,72.24 28.2,71.03 29.37,69.83 30.55,68.62 31.72,67.42 32.89,66.21 34.07,65.01 
	35.24,63.8 36.42,62.6 37.59,61.39 38.77,60.19 39.94,58.98 41.12,57.78 42.29,56.57 43.47,55.37 44.64,54.16 45.81,52.96 
	46.99,51.75 48.16,50.55 "/>
<text transform="matrix(1 0 0 1 52.8567 23.3378)" class="st4 st5 st6"> n=8 (13%)</text>
<text transform="matrix(1 0 0 1 56.0696 68.1615)" class="st4 st5 st6"> n=30 (49%)</text>
<text transform="matrix(1 0 0 1 16.4426 41.5029)" class="st4 st5 st6"> n=23 (38%)</text>
</svg>
