<?xml version="1.0" encoding="utf-8"?>
<!-- Generator: Adobe Illustrator 25.4.1, SVG Export Plug-In . SVG Version: 6.00 Build 0)  -->
<svg version="1.1" id="Layer_1" xmlns="http://www.w3.org/2000/svg" xmlns:xlink="http://www.w3.org/1999/xlink" x="0px" y="0px"
	 viewBox="0 0 300.34 368.54" style="enable-background:new 0 0 300.34 368.54;" xml:space="preserve">
<style type="text/css">
	.st0{fill:#E99B9B;}
	.st1{fill:#FFFFFF;}
	.st2{font-family:'Arial-BoldMT';}
	.st3{font-size:44px;}
</style>
<path class="st0" d="M105.21,20.47L105.21,20.47l-0.05-0.02l-0.03-0.01l0,0l0.04,0.02l0.08,0.03l0.11,0.05l0.15,0.06l0.19,0.08
	l0.22,0.1l0.26,0.11l0.29,0.13l0.32,0.14l0.35,0.16l0.39,0.18l0.42,0.19l0.45,0.21l0.48,0.22l0.51,0.24l0.54,0.26l0.57,0.27
	l0.6,0.29l0.62,0.3l0.65,0.32l0.68,0.34l0.71,0.35l0.73,0.37l0.75,0.38l0.77,0.4l0.8,0.42l0.83,0.43l0.84,0.45l0.87,0.46l0.89,0.48
	l0.91,0.5l0.93,0.51l0.95,0.53l0.97,0.54l0.99,0.56l1.01,0.58l1.03,0.59l1.05,0.61l1.07,0.63l1.08,0.64l1.1,0.66l1.12,0.68
	l1.13,0.69l1.15,0.71l1.16,0.73l1.18,0.75l1.2,0.76l1.21,0.78l1.92,1.26l2.6,1.73l2.58,1.75l2.63,1.83l2.69,1.91l2.75,2l2.8,2.08
	l2.86,2.18l2.91,2.27l2.96,2.36l3.01,2.46l3.05,2.56l3.1,2.66l3.14,2.77l3.18,2.87l3.21,2.98l3.24,3.09l3.27,3.2l3.29,3.31l3.3,3.42
	l3.31,3.54l3.32,3.65l3.32,3.77l3.32,3.88l3.31,3.99l3.29,4.11l3.27,4.22l3.25,4.34l2.4,3.31l1.59,2.23l1.59,2.28l1.58,2.31
	l1.57,2.34l1.56,2.37l1.55,2.4l1.54,2.43l1.53,2.46l1.51,2.49l1.5,2.51l1.48,2.54l1.47,2.57l1.45,2.6l1.44,2.63l1.42,2.66l1.4,2.69
	l1.38,2.72l1.36,2.75l1.35,2.78l0.66,1.38l-0.02-0.03l0.26,0.56l0.5,1.09l0.48,1.11l0.48,1.15l0.47,1.19l0.47,1.22l0.46,1.25
	l0.45,1.28l0.67,2l0.86,2.76l0.81,2.86l0.77,2.96l0.72,3.06l0.67,3.15l0.61,3.24l0.55,3.31l0.49,3.39l0.43,3.45l0.36,3.52l0.29,3.57
	l0.21,3.62l0.13,3.66l0.05,3.7l-0.03,3.73l-0.12,3.76l-0.21,3.78l-0.3,3.79l-0.4,3.8l-0.5,3.81l-0.6,3.81l-0.7,3.8l-0.81,3.79
	l-0.92,3.77l-1.04,3.75l-0.85,2.79l-0.61,1.85l-0.64,1.84l-0.67,1.83l-0.7,1.82l-0.73,1.81l-0.76,1.8l-0.79,1.79l-0.83,1.78
	l-0.86,1.76l-0.89,1.75l-0.93,1.73l-0.96,1.72l-0.99,1.7l-1.03,1.69l-1.06,1.67l-1.1,1.65l-1.14,1.63l-1.17,1.61l-1.21,1.59
	l-1.24,1.57l-1.28,1.55l-1.32,1.53l-1.36,1.5l-1.4,1.48l-1.43,1.45l-1.47,1.43l-1.51,1.4l-1.55,1.38l-1.59,1.35l-1.63,1.32
	l-1.67,1.29l-1.71,1.26l-1.75,1.24l-1.8,1.2l-1.84,1.17l-1.88,1.14l-1.92,1.11l-1.97,1.08l-2.01,1.04l-2.05,1.01l-2.1,0.97
	l-2.14,0.94l-2.18,0.9l-2.23,0.87l-2.28,0.83l-2.32,0.79l-2.37,0.75l-2.41,0.71l-2.46,0.67l-2.51,0.63l-2.55,0.59l-2.6,0.55
	l-2.65,0.5l-2.69,0.46l-2.74,0.42l-2.79,0.37l-2.84,0.33l-2.89,0.28l-2.94,0.23l-2.99,0.19l-3.03,0.14l-3.08,0.09l-3.14,0.04
	l-3.18-0.01l-3.23-0.06l-3.29-0.11l-3.34-0.16l-1.66-0.1l0.04,0l-1.74-0.11l-3.41-0.23l-3.33-0.25l-3.27-0.26l-3.2-0.28l-3.14-0.29
	l-3.08-0.31l-3.02-0.32l-2.96-0.34l-2.9-0.35l-2.84-0.36l-2.78-0.38L95.99,342l-2.66-0.4l-2.59-0.41l-2.54-0.43l-2.48-0.44
	l-2.42-0.45l-2.36-0.46l-2.3-0.46l-2.24-0.47L74.25,338l-2.11-0.49l-2.05-0.49l-1.99-0.5l-1.93-0.5l-1.87-0.51l-1.8-0.51l-1.74-0.51
	l-1.67-0.51l-1.6-0.51l-1.53-0.51l-1.46-0.5l-1.39-0.5l-1.31-0.49l-1.24-0.48l-1.16-0.46l-1.07-0.44l-0.99-0.43l-0.9-0.4l-0.81-0.38
	l-0.72-0.35l-0.63-0.31l-0.53-0.28l-0.44-0.24l-0.36-0.2l-0.27-0.16l-0.2-0.13l-0.14-0.09l-0.08-0.06l-0.31-0.22l-0.24-0.21
	l0.02-0.03l-0.06-0.1l-0.19-0.21l-0.32-0.34l-0.44-0.49l-0.53-0.62l-0.6-0.73l-0.63-0.83l-0.63-0.91l-0.62-0.97l-0.59-1.01
	l-0.56-1.05l-0.51-1.07l-0.47-1.08l-0.42-1.08l-0.37-1.08l-0.32-1.07l-0.27-1.05l-0.22-1.03l-0.18-1l-0.14-0.97l-0.1-0.94l-0.06-0.9
	l-0.03-0.86l0-0.81l0.02-0.77l0.04-0.72l0.06-0.66l0.07-0.61l0.08-0.55l0.08-0.48l0.08-0.42l0.08-0.35l0.07-0.28l0.06-0.21
	l0.04-0.13l0.02-0.06l0,0.01c0.86-2.63-5.91-9.27-15.12-14.83c-9.2-5.55-17.36-7.92-18.22-5.29l-0.01,0.03l-0.03,0.11l-0.05,0.19
	l-0.07,0.27l-0.08,0.34l-0.09,0.42l-0.09,0.49l-0.09,0.56l-0.09,0.63l-0.08,0.7l-0.06,0.76l-0.05,0.82L0,287.28l0.01,0.94l0.04,1
	l0.08,1.06l0.12,1.11l0.17,1.16l0.22,1.21l0.28,1.27l0.34,1.32l0.42,1.37l0.5,1.42l0.58,1.48l0.68,1.53l0.79,1.59l0.91,1.66
	l1.04,1.73l1.19,1.81l1.37,1.9l1.58,2l1.82,2.12l2.09,2.25l2.41,2.4l2.76,2.55l3.13,2.68l3.51,2.79l3.85,2.84l3.85,2.66l2.94,1.91
	l2.17,1.36l2.19,1.32l2.2,1.28l2.2,1.24l2.19,1.19l2.18,1.14l2.17,1.1l2.15,1.05l2.14,1.01l2.13,0.97l2.12,0.93l2.11,0.9l2.11,0.87
	l2.11,0.83l2.12,0.81l2.12,0.78l2.14,0.76l2.15,0.73l2.17,0.71l2.19,0.69l2.21,0.68l2.24,0.66l2.27,0.64l2.3,0.62l2.34,0.61
	l2.37,0.59l2.4,0.58l2.44,0.56l2.48,0.55l2.52,0.53l2.57,0.52l2.61,0.5l2.65,0.49l2.7,0.47l2.75,0.46l2.8,0.45l2.84,0.43l2.89,0.41
	l2.95,0.4l3,0.38l3.05,0.37l3.1,0.35l3.15,0.34l3.21,0.32l3.27,0.3l3.32,0.29l3.38,0.27l3.44,0.25l3.48,0.23l1.75,0.11
	c0.01,0,0.03,0,0.04,0l1.84,0.11l3.56,0.17l3.5,0.11l3.44,0.06l3.39,0l3.33-0.05l3.27-0.1l3.21-0.15l3.16-0.2l3.1-0.25l3.04-0.3
	l2.99-0.35l2.93-0.39l2.88-0.44l2.83-0.48l2.77-0.53l2.72-0.57l2.67-0.62l2.62-0.66l2.57-0.7l2.52-0.74l2.46-0.78l2.42-0.82
	l2.37-0.86l2.32-0.9l2.27-0.94l2.22-0.97l2.17-1.01l2.13-1.05l2.08-1.08l2.03-1.11l1.99-1.15l1.94-1.18l1.9-1.21l1.85-1.24
	l1.81-1.27l1.77-1.3l1.72-1.33l1.68-1.36l1.64-1.39l1.6-1.42l1.55-1.44l1.51-1.47l1.47-1.5l1.43-1.52l1.39-1.54l1.35-1.57l1.31-1.59
	l1.28-1.61l1.24-1.63l1.2-1.65l1.16-1.67l1.13-1.69l1.09-1.71l1.05-1.73l1.02-1.74l0.98-1.76l0.95-1.77l0.91-1.79l0.88-1.8
	l0.84-1.82l0.81-1.83l0.78-1.84l0.75-1.85l0.71-1.86l0.68-1.87l0.65-1.88l0.62-1.9l0.87-2.86l1.06-3.83l0.94-3.85l0.83-3.87
	l0.72-3.88l0.61-3.89l0.51-3.89l0.4-3.89l0.31-3.88l0.21-3.86l0.12-3.84l0.03-3.82l-0.06-3.79l-0.14-3.75l-0.22-3.71l-0.3-3.67
	l-0.37-3.62l-0.44-3.56l-0.51-3.5l-0.58-3.43l-0.64-3.36l-0.7-3.29l-0.76-3.2l-0.81-3.12l-0.86-3.03l-0.91-2.93l-0.71-2.13
	l-0.49-1.4l-0.51-1.37l-0.52-1.35l-0.53-1.32l-0.54-1.3l-0.55-1.27l-0.56-1.23l-0.27-0.57c-0.01-0.01-0.01-0.02-0.02-0.03l-0.7-1.47
	l-1.4-2.89l-1.42-2.87l-1.45-2.84l-1.47-2.81l-1.49-2.79l-1.51-2.77l-1.53-2.74l-1.55-2.71l-1.57-2.69l-1.59-2.67l-1.61-2.64
	l-1.62-2.62l-1.64-2.59l-1.66-2.57l-1.68-2.55l-1.69-2.52l-1.71-2.5l-1.73-2.47l-1.76-2.47l-2.66-3.66l-3.57-4.76l-3.63-4.67
	l-3.68-4.58l-3.73-4.5l-3.78-4.41l-3.82-4.32l-3.86-4.24l-3.9-4.15l-3.93-4.07l-3.96-3.99l-3.99-3.9l-4.02-3.82l-4.04-3.74
	l-4.06-3.66l-4.07-3.58l-4.08-3.49l-4.08-3.41l-4.08-3.33l-4.07-3.24l-4.06-3.15l-4.04-3.06l-4.01-2.98l-3.98-2.88l-3.94-2.79
	l-3.89-2.7l-3.84-2.6l-3.7-2.45l-2.71-1.77L144.59,31l-1.82-1.16l-1.8-1.13l-1.78-1.11l-1.75-1.08l-1.73-1.06l-1.71-1.03l-1.69-1.01
	l-1.66-0.99l-1.63-0.96l-1.61-0.94l-1.59-0.91l-1.55-0.88l-1.53-0.86l-1.5-0.84l-1.47-0.81l-1.44-0.79l-1.41-0.77l-1.38-0.74
	l-1.35-0.72l-1.32-0.7l-1.28-0.67l-1.25-0.65l-1.22-0.63l-1.19-0.6l-1.15-0.58l-1.12-0.56l-1.08-0.54l-1.05-0.51l-1.01-0.49
	l-0.98-0.47l-0.94-0.45l-0.9-0.43l-0.87-0.41l-0.82-0.38L97.23,4.8l-0.75-0.34l-0.71-0.32l-0.67-0.3l-0.63-0.28l-0.59-0.26
	l-0.55-0.24l-0.51-0.22l-0.46-0.2l-0.42-0.18l-0.38-0.16l-0.34-0.14l-0.29-0.12l-0.25-0.1l-0.2-0.08l-0.13-0.05l-0.01,0
	c-8.28-3.34-11.66-1.87-7.56,3.29C86.89,10.24,96.93,17.13,105.21,20.47"/>
<text transform="matrix(1 0 0 1 59.1514 138.1595)" class="st1 st2 st3">Human </text>
<text transform="matrix(1 0 0 1 59.1514 189.3596)" class="st1 st2 st3">Breast  </text>
<text transform="matrix(1 0 0 1 59.1514 240.5596)" class="st1 st2 st3">Cell </text>
<text transform="matrix(1 0 0 1 59.1514 291.7596)" class="st1 st2 st3">Atlas</text>
</svg>
