<?xml version="1.0" encoding="utf-8"?>
<!-- Generator: Adobe Illustrator 26.3.1, SVG Export Plug-In . SVG Version: 6.00 Build 0)  -->
<svg version="1.1" id="Layer_1" xmlns="http://www.w3.org/2000/svg" xmlns:xlink="http://www.w3.org/1999/xlink" x="0px" y="0px"
	 viewBox="0 0 285.89 286.4" style="enable-background:new 0 0 285.89 286.4;" xml:space="preserve">
<style type="text/css">
	.st0{fill:#F05223;stroke:#FFFFFF;stroke-width:3;stroke-miterlimit:10;}
	.st1{fill:#E6B821;stroke:#FFFFFF;stroke-width:3;stroke-miterlimit:10;}
	.st2{fill:#03AFBB;stroke:#FFFFFF;stroke-width:3;stroke-miterlimit:10;}
	.st3{fill:#FFFFFF;}
	.st4{font-family:'Helvetica';}
	.st5{font-size:11px;}
</style>
<polygon class="st0" points="143.19,143.22 145.84,147.37 148.48,151.52 151.12,155.67 153.76,159.82 156.4,163.98 159.04,168.13 
	161.68,172.28 164.32,176.43 166.96,180.58 169.6,184.74 172.24,188.89 174.89,193.04 177.53,197.19 180.17,201.34 182.81,205.5 
	185.45,209.65 188.09,213.8 190.73,217.95 193.37,222.1 196.01,226.26 198.65,230.41 201.3,234.56 203.94,238.71 206.58,242.86 
	209.22,247.02 211.86,251.17 214.5,255.32 217.14,259.47 219.78,263.62 223.82,260.96 227.76,258.16 231.61,255.23 235.35,252.17 
	238.99,248.99 242.52,245.68 245.93,242.26 249.23,238.72 252.4,235.07 255.45,231.32 258.37,227.47 261.16,223.52 263.81,219.48 
	266.32,215.35 268.7,211.13 270.93,206.84 273.01,202.48 274.94,198.05 276.72,193.55 278.35,189 279.83,184.4 281.14,179.74 
	282.3,175.05 283.3,170.32 284.14,165.56 284.81,160.77 285.33,155.96 285.68,151.14 285.86,146.31 285.89,141.47 285.75,136.64 
	285.44,131.82 284.97,127 284.34,122.21 283.55,117.44 282.6,112.7 281.48,108 280.21,103.33 278.78,98.71 277.2,94.15 
	275.46,89.63 273.56,85.19 271.52,80.8 269.34,76.49 267,72.26 264.53,68.1 261.91,64.03 259.16,60.06 256.28,56.18 253.27,52.4 
	250.13,48.72 246.86,45.15 243.48,41.7 239.99,38.36 236.38,35.14 232.66,32.04 228.85,29.08 224.93,26.24 220.92,23.54 
	216.82,20.97 212.64,18.55 208.38,16.27 204.04,14.13 199.63,12.15 195.16,10.31 190.63,8.63 186.04,7.1 181.4,5.72 176.72,4.51 
	172.01,3.45 167.25,2.56 162.48,1.82 157.67,1.25 152.86,0.84 148.03,0.6 143.19,0.51 143.19,5.43 143.19,10.35 143.19,15.28 
	143.19,20.2 143.19,25.12 143.19,30.04 143.19,34.96 143.19,39.88 143.19,44.8 143.19,49.72 143.19,54.64 143.19,59.56 
	143.19,64.48 143.19,69.4 143.19,74.32 143.19,79.25 143.19,84.17 143.19,89.09 143.19,94.01 143.19,98.93 143.19,103.85 
	143.19,108.77 143.19,113.69 143.19,118.61 143.19,123.53 143.19,128.45 143.19,133.37 143.19,138.29 "/>
<polygon class="st1" points="143.19,143.22 142.94,148.13 142.69,153.04 142.43,157.96 142.18,162.87 141.93,167.79 141.67,172.7 
	141.42,177.62 141.17,182.53 140.91,187.44 140.66,192.36 140.41,197.27 140.15,202.19 139.9,207.1 139.65,212.02 139.39,216.93 
	139.14,221.84 138.89,226.76 138.63,231.67 138.38,236.59 138.13,241.5 137.87,246.41 137.62,251.33 137.37,256.24 137.11,261.16 
	136.86,266.07 136.61,270.99 136.35,275.9 136.1,280.81 135.85,285.73 140.74,285.9 145.64,285.9 150.54,285.73 155.43,285.39 
	160.3,284.89 165.15,284.22 169.98,283.38 174.78,282.38 179.54,281.21 184.25,279.88 188.92,278.39 193.53,276.74 198.09,274.94 
	202.58,272.98 207,270.86 211.34,268.6 215.6,266.18 219.78,263.62 217.14,259.47 214.5,255.32 211.86,251.17 209.22,247.02 
	206.58,242.86 203.94,238.71 201.3,234.56 198.65,230.41 196.01,226.26 193.37,222.1 190.73,217.95 188.09,213.8 185.45,209.65 
	182.81,205.5 180.17,201.34 177.53,197.19 174.89,193.04 172.24,188.89 169.6,184.74 166.96,180.58 164.32,176.43 161.68,172.28 
	159.04,168.13 156.4,163.98 153.76,159.82 151.12,155.67 148.48,151.52 145.84,147.37 "/>
<polygon class="st2" points="143.19,143.22 143.19,138.29 143.19,133.37 143.19,128.45 143.19,123.53 143.19,118.61 143.19,113.69 
	143.19,108.77 143.19,103.85 143.19,98.93 143.19,94.01 143.19,89.09 143.19,84.17 143.19,79.25 143.19,74.32 143.19,69.4 
	143.19,64.48 143.19,59.56 143.19,54.64 143.19,49.72 143.19,44.8 143.19,39.88 143.19,34.96 143.19,30.04 143.19,25.12 
	143.19,20.2 143.19,15.28 143.19,10.35 143.19,5.43 143.19,0.51 138.35,0.6 133.51,0.84 128.68,1.25 123.87,1.83 119.08,2.57 
	114.32,3.46 109.59,4.53 104.9,5.75 100.26,7.13 95.66,8.66 91.12,10.35 86.64,12.2 82.23,14.19 77.88,16.34 73.61,18.63 
	69.42,21.06 65.32,23.64 61.3,26.35 57.38,29.2 53.56,32.18 49.84,35.28 46.23,38.52 42.73,41.87 39.35,45.34 36.09,48.92 
	32.95,52.61 29.93,56.41 27.05,60.3 24.3,64.29 21.69,68.37 19.22,72.54 16.89,76.79 14.71,81.12 12.68,85.52 10.79,89.98 
	9.06,94.51 7.49,99.09 6.07,103.72 4.8,108.4 3.7,113.12 2.76,117.87 1.98,122.65 1.36,127.46 0.91,132.28 0.62,137.12 0.5,141.96 
	0.54,146.81 0.74,151.65 1.11,156.48 1.64,161.3 2.34,166.09 3.2,170.86 4.21,175.6 5.39,180.3 6.73,184.96 8.23,189.57 
	9.88,194.12 11.69,198.62 13.64,203.05 15.75,207.41 18,211.7 20.4,215.91 22.94,220.04 25.62,224.08 28.43,228.03 31.37,231.87 
	34.45,235.62 37.65,239.26 40.97,242.78 44.41,246.2 47.96,249.49 51.63,252.66 55.39,255.71 59.26,258.63 63.23,261.41 
	67.29,264.06 71.44,266.56 75.66,268.93 79.97,271.15 84.35,273.22 88.8,275.14 93.31,276.91 97.88,278.53 102.5,279.99 
	107.16,281.29 111.87,282.44 116.62,283.42 121.39,284.24 126.19,284.9 131.01,285.4 135.85,285.73 136.1,280.81 136.35,275.9 
	136.61,270.99 136.86,266.07 137.11,261.16 137.37,256.24 137.62,251.33 137.87,246.41 138.13,241.5 138.38,236.59 138.63,231.67 
	138.89,226.76 139.14,221.84 139.39,216.93 139.65,212.02 139.9,207.1 140.15,202.19 140.41,197.27 140.66,192.36 140.91,187.44 
	141.17,182.53 141.42,177.62 141.67,172.7 141.93,167.79 142.18,162.87 142.43,157.96 142.69,153.04 142.94,148.13 "/>
<text transform="matrix(1 0 0 1 181.5897 127.2195)" class="st3 st4 st5"> n=25 (41%)</text>
<text transform="matrix(1 0 0 1 143.2 245.465)" class="st3 st4 st5"> n=6 (10%)</text>
<text transform="matrix(1 0 0 1 41.7499 145.3289)" class="st3 st4 st5"> n=30 (49%)</text>
</svg>
